<svg id="svg" version="1.1" xmlns="http://www.w3.org/2000/svg" xmlns:xlink="http://www.w3.org/1999/xlink" width="400" height="369.1428571428571" viewBox="0, 0, 400,369.1428571428571"><g id="svgg"><path id="path0" d="M293.813 22.681 C 288.834 23.688,287.278 24.787,278.705 33.352 L 272.460 39.591 267.809 39.455 C 265.218 39.379,262.831 39.129,262.419 38.891 C 262.013 38.655,259.769 37.693,257.433 36.752 C 255.097 35.810,252.853 34.894,252.447 34.715 C 249.535 33.432,248.042 32.844,245.614 32.027 C 243.132 31.191,237.265 29.392,233.795 28.403 C 222.289 25.123,182.444 24.703,168.236 27.712 C 162.458 28.936,161.479 29.207,156.678 30.910 C 143.124 35.718,141.180 36.315,134.257 37.798 C 131.037 38.487,126.855 39.181,125.392 39.269 L 124.284 39.335 124.177 36.288 L 124.070 33.241 120.985 33.241 C 117.373 33.241,117.452 33.328,117.452 29.309 L 117.452 26.545 114.589 25.184 L 111.727 23.823 102.124 23.825 C 91.743 23.827,91.511 23.862,85.503 26.339 C 80.280 28.492,69.680 37.929,65.511 44.137 C 64.221 46.058,63.549 47.241,62.008 50.311 C 61.472 51.378,60.859 54.012,60.695 55.956 C 60.316 60.420,69.812 70.924,78.778 75.959 C 83.364 78.535,94.283 82.733,96.395 82.733 C 97.035 82.733,98.376 83.227,98.903 83.656 C 98.960 83.703,98.519 84.802,97.924 86.099 C 96.321 89.587,94.917 94.248,93.597 100.462 C 92.993 103.304,92.846 103.949,91.790 108.403 C 90.860 112.321,90.231 114.840,89.622 117.082 C 89.319 118.199,88.816 120.111,88.504 121.330 C 88.193 122.548,87.504 124.958,86.974 126.685 C 86.107 129.511,85.516 131.531,83.625 138.135 C 83.305 139.252,82.908 140.582,82.742 141.090 C 82.576 141.597,82.189 143.093,81.880 144.414 C 81.572 145.734,81.066 147.895,80.757 149.215 C 80.196 151.608,79.475 154.962,78.691 158.818 C 78.297 160.755,78.001 163.002,77.157 170.452 C 76.663 174.825,76.653 193.009,77.144 196.307 C 78.638 206.337,81.067 216.894,82.753 220.683 C 82.934 221.090,83.424 222.336,83.841 223.453 C 84.259 224.571,84.742 225.817,84.915 226.223 C 85.088 226.630,85.499 227.669,85.828 228.532 C 88.176 234.691,88.533 235.555,90.675 240.259 C 91.776 242.676,94.307 246.640,95.274 247.461 C 102.958 253.982,107.006 266.328,105.930 279.963 C 105.303 287.903,105.299 303.911,105.923 308.033 C 106.519 311.975,107.436 316.484,107.838 317.452 C 108.007 317.858,108.523 319.271,108.984 320.591 C 112.335 330.184,114.403 333.126,119.257 335.208 C 121.006 335.958,123.269 336.938,124.284 337.387 C 129.568 339.717,136.690 341.555,145.337 342.820 C 151.068 343.658,245.091 343.516,250.970 342.661 C 262.771 340.943,271.162 338.779,278.726 335.500 C 279.366 335.222,280.075 334.995,280.301 334.995 C 280.527 334.995,281.000 334.837,281.353 334.644 C 281.706 334.451,282.576 334.029,283.287 333.708 C 286.513 332.249,290.907 324.654,293.013 316.898 C 295.181 308.914,295.330 305.582,294.584 281.606 C 293.906 259.800,293.806 260.876,296.797 257.738 C 300.369 253.992,305.064 247.194,307.085 242.844 C 308.729 239.304,309.063 238.532,309.873 236.380 C 310.294 235.263,310.792 234.017,310.979 233.610 C 311.166 233.204,311.843 231.542,312.484 229.917 C 314.037 225.979,314.656 224.490,315.022 223.811 C 315.189 223.499,315.452 222.674,315.605 221.976 C 315.758 221.278,316.018 220.453,316.183 220.141 C 316.566 219.417,318.519 212.986,319.506 209.197 C 322.442 197.928,323.713 187.029,323.397 175.808 C 323.092 164.946,322.311 160.233,318.621 146.999 C 318.310 145.882,317.317 142.724,316.415 139.982 C 315.513 137.239,314.409 133.749,313.962 132.225 C 313.515 130.702,313.014 129.040,312.849 128.532 C 312.684 128.024,312.267 126.528,311.924 125.208 C 311.580 123.887,311.141 122.225,310.948 121.514 C 310.755 120.803,310.441 119.474,310.251 118.560 C 310.060 117.645,309.640 115.734,309.317 114.312 C 308.264 109.676,307.048 103.328,305.815 96.030 C 305.420 93.693,304.893 90.625,304.644 89.211 C 304.395 87.796,304.183 85.903,304.173 85.004 L 304.155 83.369 308.218 81.290 C 310.452 80.147,313.777 78.401,315.605 77.410 C 317.433 76.419,320.009 75.027,321.330 74.315 C 332.376 68.364,334.929 65.747,336.801 58.459 C 337.731 54.838,337.754 54.125,337.018 51.813 C 336.709 50.841,336.170 49.132,335.821 48.015 C 334.397 43.452,332.731 41.320,327.666 37.579 C 325.707 36.133,323.937 34.808,323.733 34.635 C 319.657 31.195,310.232 25.755,305.633 24.189 C 304.617 23.843,303.453 23.418,303.047 23.244 C 300.694 22.236,297.097 22.017,293.813 22.681 M305.827 37.216 C 311.699 40.166,315.917 43.475,320.652 48.848 L 323.176 51.713 323.171 54.942 C 323.164 58.963,323.266 58.844,317.267 61.788 C 316.353 62.237,315.522 62.701,315.420 62.819 C 315.319 62.938,314.155 63.578,312.835 64.241 C 311.514 64.905,310.185 65.595,309.880 65.774 C 302.538 70.094,295.831 71.189,290.111 69.000 C 287.691 68.074,287.183 67.536,284.775 63.343 C 283.725 61.514,282.713 59.769,282.525 59.464 C 278.207 52.443,278.172 52.206,280.979 48.894 C 291.621 36.336,298.056 33.312,305.827 37.216 M104.666 38.839 C 106.924 40.089,109.110 41.294,109.523 41.516 C 111.935 42.815,114.343 45.050,116.073 47.595 L 117.991 50.416 117.985 53.924 C 117.978 58.463,115.237 63.050,109.839 67.557 C 109.252 68.047,108.148 69.003,107.386 69.681 C 105.306 71.531,102.520 70.912,92.909 66.464 C 91.614 65.864,90.458 65.374,90.340 65.374 C 89.556 65.374,82.937 61.771,82.502 61.108 C 81.429 59.470,80.060 54.456,79.877 51.494 L 79.692 48.509 84.445 45.357 C 100.718 34.563,98.331 35.332,104.666 38.839 M212.927 38.403 C 214.349 38.646,217.424 39.167,219.760 39.560 C 225.496 40.526,230.885 41.722,235.088 42.963 C 239.250 44.191,242.147 45.114,242.844 45.433 C 243.250 45.619,245.162 46.372,247.091 47.107 C 254.376 49.879,256.961 51.337,263.621 56.430 C 272.188 62.981,280.668 74.353,285.988 86.427 C 286.302 87.138,286.894 88.481,287.305 89.413 C 288.083 91.177,290.562 98.353,291.058 100.277 C 291.215 100.886,291.874 103.380,292.524 105.817 C 293.173 108.255,293.924 111.163,294.192 112.281 C 294.460 113.398,294.956 115.226,295.293 116.343 C 295.630 117.461,296.131 119.206,296.407 120.222 C 296.682 121.237,297.174 122.982,297.501 124.100 C 298.644 128.003,299.258 130.204,299.561 131.487 C 299.730 132.198,300.138 133.777,300.468 134.995 C 301.748 139.714,302.972 145.016,303.617 148.634 C 303.832 149.838,304.067 150.920,304.140 151.038 C 304.263 151.237,305.242 157.064,306.159 163.066 C 307.424 171.333,307.446 192.929,306.196 199.380 C 306.012 200.330,305.588 202.770,305.254 204.801 C 303.884 213.146,301.181 221.999,296.742 232.687 C 293.208 241.197,289.761 244.071,282.412 244.637 C 281.514 244.707,281.548 244.779,278.469 236.380 C 275.599 228.554,273.850 223.926,273.073 222.105 C 272.800 221.465,272.576 220.675,272.576 220.350 C 272.576 219.840,271.935 219.760,267.850 219.760 L 263.123 219.760 263.387 222.526 C 263.738 226.200,264.511 229.612,265.564 232.133 C 265.888 232.909,267.554 237.978,268.720 241.736 C 269.098 242.955,269.519 244.118,269.656 244.321 C 269.793 244.524,270.029 245.267,270.180 245.971 C 270.331 246.676,270.590 247.507,270.757 247.818 C 270.924 248.129,271.420 249.631,271.860 251.154 C 272.300 252.678,273.038 255.171,273.500 256.694 C 274.308 259.355,274.909 261.476,276.041 265.653 C 276.330 266.718,276.841 268.920,277.178 270.545 C 277.515 272.170,277.945 274.164,278.132 274.977 C 280.459 285.032,280.460 304.001,278.134 312.281 C 277.963 312.890,277.527 314.718,277.164 316.343 C 276.351 319.989,275.350 321.384,272.632 322.658 C 271.484 323.196,269.880 323.959,269.067 324.354 C 263.787 326.918,260.118 327.570,248.753 327.964 C 236.917 328.374,147.735 328.634,147.146 328.260 C 146.922 328.118,145.509 327.815,144.006 327.587 C 140.585 327.068,134.757 325.341,133.906 324.593 C 133.713 324.423,133.344 324.284,133.085 324.284 C 131.911 324.284,126.663 320.699,124.263 318.257 C 119.630 313.545,118.590 309.815,119.297 300.462 C 120.702 281.889,121.256 276.071,121.862 273.500 C 122.054 272.687,122.306 271.274,122.421 270.360 C 122.923 266.392,124.440 261.363,127.042 255.032 C 127.691 253.455,130.280 245.168,130.851 242.844 C 130.950 242.438,131.396 240.776,131.841 239.151 C 132.286 237.525,132.795 235.531,132.972 234.718 C 133.149 233.906,133.561 232.161,133.887 230.840 C 134.213 229.520,134.634 227.692,134.822 226.777 C 135.011 225.863,135.324 224.451,135.520 223.638 C 135.715 222.825,135.964 221.620,136.072 220.960 L 136.270 219.760 131.847 219.760 L 127.424 219.760 121.433 231.856 C 114.049 246.767,115.231 245.717,110.854 241.249 C 104.042 234.296,98.172 223.628,94.759 212.004 C 94.431 210.886,94.002 209.465,93.806 208.845 C 93.452 207.727,93.203 206.644,92.068 201.293 C 90.837 195.486,91.016 172.992,92.390 161.034 C 93.514 151.245,93.602 150.691,95.721 139.982 C 96.291 137.103,97.449 131.904,97.861 130.379 C 98.402 128.377,99.385 124.827,99.908 122.992 C 100.168 122.078,100.664 120.332,101.010 119.114 C 101.357 117.895,102.300 115.069,103.107 112.835 C 103.914 110.600,104.832 108.024,105.147 107.110 C 107.037 101.638,112.635 89.514,115.008 85.756 C 115.539 84.914,115.974 84.146,115.974 84.050 C 115.974 83.329,122.746 72.847,126.250 68.144 C 137.348 53.247,160.559 41.364,184.303 38.424 C 186.030 38.210,187.858 37.967,188.366 37.884 C 190.360 37.559,210.477 37.984,212.927 38.403 M121.404 117.544 C 122.690 134.161,129.894 144.939,143.096 149.996 C 144.125 150.390,145.300 150.856,145.706 151.031 C 147.457 151.785,151.215 152.539,153.222 152.539 L 155.392 152.539 155.658 145.554 C 155.990 136.852,156.794 138.480,147.385 128.810 C 141.908 123.182,133.750 117.452,131.215 117.452 C 130.953 117.452,130.449 117.298,130.097 117.110 C 129.061 116.558,124.413 115.603,122.769 115.604 L 121.253 115.605 121.404 117.544 M269.621 115.938 C 269.317 116.109,268.455 116.359,267.707 116.493 C 265.973 116.804,256.415 122.540,253.742 124.873 C 247.216 130.569,245.348 135.268,244.685 147.645 L 244.424 152.539 246.437 152.539 C 251.745 152.539,258.431 149.878,265.820 144.824 C 271.716 140.792,277.187 129.690,277.944 120.222 C 278.057 118.800,278.222 117.179,278.309 116.620 L 278.467 115.605 274.321 115.616 C 272.041 115.622,269.926 115.767,269.621 115.938 M231.606 263.360 C 228.329 266.646,228.110 267.297,228.974 271.186 C 230.467 277.913,231.302 281.361,231.523 281.719 C 231.795 282.159,232.853 282.039,238.781 280.894 C 240.406 280.580,242.834 280.133,244.176 279.901 C 247.026 279.408,247.310 279.089,247.827 275.811 C 248.288 272.887,248.853 269.858,249.292 267.959 C 249.480 267.147,249.712 265.881,249.809 265.146 L 249.984 263.810 247.891 263.213 C 242.692 261.728,241.721 261.496,240.721 261.496 C 240.135 261.496,239.376 261.352,239.034 261.176 C 238.692 261.000,237.552 260.747,236.500 260.613 L 234.589 260.370 231.606 263.360 M154.571 261.841 C 153.961 261.989,152.658 262.468,151.675 262.905 L 149.887 263.700 150.013 269.338 C 150.158 275.832,150.645 277.196,154.004 280.505 L 155.770 282.244 158.679 281.848 C 163.925 281.134,170.263 279.704,170.888 279.095 C 171.221 278.769,171.197 278.068,170.782 276.085 C 170.485 274.663,169.990 272.253,169.683 270.729 C 169.376 269.206,168.966 267.358,168.773 266.624 C 168.579 265.889,168.421 264.967,168.421 264.574 C 168.421 262.812,158.572 260.868,154.571 261.841 " stroke="none" fill="#757d8c" fill-rule="evenodd"></path><path id="path1" d="M89.381 0.405 C 87.858 0.573,86.154 0.752,85.596 0.803 C 85.037 0.854,84.580 1.006,84.580 1.140 C 84.580 1.364,81.560 1.860,80.055 1.883 C 79.700 1.888,79.409 2.049,79.409 2.239 C 79.409 2.430,78.827 2.585,78.116 2.585 C 77.405 2.585,76.824 2.735,76.824 2.918 C 76.824 3.102,75.826 3.367,74.608 3.509 C 73.389 3.650,72.392 3.895,72.392 4.052 C 72.392 4.209,71.719 4.445,70.898 4.577 C 70.077 4.708,69.121 4.954,68.774 5.123 C 66.745 6.115,65.417 6.629,64.319 6.847 C 63.097 7.090,59.458 8.789,59.091 9.288 C 58.988 9.429,58.448 9.659,57.891 9.798 C 57.334 9.938,56.879 10.187,56.879 10.352 C 56.879 10.517,56.380 10.762,55.771 10.896 C 55.162 11.030,54.663 11.279,54.663 11.450 C 54.663 11.621,54.164 11.870,53.555 12.004 C 52.946 12.138,52.447 12.382,52.447 12.547 C 52.447 12.712,52.031 12.951,51.524 13.079 C 51.016 13.206,50.600 13.474,50.600 13.673 C 50.600 13.872,50.364 14.035,50.075 14.035 C 49.785 14.035,49.068 14.440,48.480 14.934 C 47.892 15.429,46.965 15.946,46.420 16.083 C 45.875 16.219,45.425 16.438,45.419 16.568 C 45.414 16.699,44.749 17.213,43.942 17.710 C 43.135 18.208,42.475 18.749,42.475 18.911 C 42.475 19.073,42.249 19.206,41.972 19.206 C 41.696 19.206,41.158 19.621,40.777 20.129 C 40.395 20.637,39.872 21.053,39.613 21.053 C 39.355 21.053,38.859 21.385,38.511 21.791 C 38.163 22.198,37.735 22.530,37.561 22.530 C 37.073 22.530,24.822 34.936,22.425 37.858 C 21.258 39.280,20.056 40.706,19.755 41.028 C 19.453 41.350,19.206 41.731,19.206 41.875 C 19.206 42.020,18.790 42.586,18.283 43.133 C 17.775 43.681,17.359 44.344,17.359 44.606 C 17.359 44.869,17.120 45.175,16.828 45.287 C 16.535 45.399,16.194 45.959,16.068 46.530 C 15.943 47.101,15.521 47.858,15.131 48.211 C 14.741 48.563,14.511 48.996,14.620 49.172 C 14.728 49.348,14.641 49.492,14.426 49.492 C 14.211 49.492,14.035 49.741,14.035 50.046 C 14.035 50.351,13.872 50.600,13.673 50.600 C 13.474 50.600,13.206 51.016,13.079 51.524 C 12.951 52.031,12.712 52.447,12.547 52.447 C 12.382 52.447,12.138 52.946,12.004 53.555 C 11.870 54.164,11.621 54.663,11.450 54.663 C 11.279 54.663,11.030 55.162,10.896 55.771 C 10.762 56.380,10.513 56.879,10.342 56.879 C 10.171 56.879,9.921 57.378,9.788 57.987 C 9.654 58.596,9.391 59.095,9.204 59.095 C 9.017 59.095,8.864 59.407,8.864 59.789 C 8.864 60.170,8.615 60.689,8.310 60.942 C 8.006 61.195,7.756 61.612,7.756 61.868 C 7.756 62.125,7.508 62.811,7.204 63.393 C 6.901 63.975,6.652 64.825,6.650 65.282 C 6.649 65.739,6.484 66.113,6.283 66.113 C 6.082 66.113,5.812 66.777,5.682 67.590 C 5.552 68.403,5.320 69.067,5.166 69.067 C 5.011 69.067,4.773 69.815,4.636 70.729 C 4.499 71.644,4.247 72.392,4.076 72.392 C 3.906 72.392,3.650 73.389,3.509 74.608 C 3.367 75.826,3.102 76.824,2.918 76.824 C 2.735 76.824,2.585 77.295,2.585 77.870 C 2.585 78.446,2.471 79.031,2.332 79.170 C 2.192 79.310,2.040 79.712,1.993 80.063 C 1.773 81.716,1.395 83.709,1.206 84.211 C 0.083 87.192,0.000 94.061,0.000 184.409 C 0.000 273.871,0.109 283.206,1.169 284.949 C 1.292 285.152,1.512 286.358,1.656 287.628 C 1.801 288.898,2.069 290.029,2.252 290.142 C 2.436 290.256,2.585 290.837,2.585 291.435 C 2.585 292.032,2.735 292.521,2.918 292.521 C 3.102 292.521,3.367 293.518,3.509 294.737 C 3.650 295.956,3.906 296.953,4.076 296.953 C 4.247 296.953,4.499 297.701,4.636 298.615 C 4.773 299.529,5.011 300.277,5.166 300.277 C 5.320 300.277,5.552 300.942,5.682 301.754 C 5.812 302.567,6.064 303.232,6.241 303.232 C 6.419 303.232,6.676 303.980,6.814 304.894 C 6.951 305.808,7.219 306.556,7.410 306.556 C 7.600 306.556,7.756 306.792,7.756 307.080 C 7.756 307.631,8.872 309.930,9.297 310.253 C 9.433 310.356,9.659 310.897,9.798 311.453 C 9.938 312.010,10.187 312.465,10.352 312.465 C 10.517 312.465,10.762 312.964,10.896 313.573 C 11.030 314.183,11.279 314.681,11.450 314.681 C 11.621 314.681,11.870 315.180,12.004 315.789 C 12.138 316.399,12.382 316.898,12.547 316.898 C 12.712 316.898,12.951 317.313,13.079 317.821 C 13.206 318.329,13.474 318.744,13.673 318.744 C 13.872 318.744,14.035 318.994,14.035 319.298 C 14.035 319.603,14.211 319.852,14.426 319.852 C 14.641 319.852,14.728 319.996,14.620 320.172 C 14.511 320.348,14.741 320.781,15.131 321.134 C 15.521 321.487,15.943 322.243,16.068 322.814 C 16.194 323.386,16.535 323.945,16.828 324.057 C 17.120 324.169,17.359 324.476,17.359 324.738 C 17.359 325.001,17.775 325.663,18.283 326.211 C 18.790 326.759,19.206 327.372,19.206 327.574 C 19.206 327.776,19.427 328.074,19.696 328.236 C 19.966 328.399,20.495 329.063,20.872 329.712 C 21.249 330.361,21.681 330.816,21.832 330.722 C 21.984 330.629,22.227 330.929,22.373 331.389 C 22.637 332.223,37.027 346.814,37.585 346.814 C 37.746 346.814,38.163 347.147,38.511 347.553 C 38.859 347.959,39.355 348.292,39.613 348.292 C 39.872 348.292,40.395 348.707,40.777 349.215 C 41.158 349.723,41.696 350.139,41.972 350.139 C 42.249 350.139,42.475 350.271,42.475 350.434 C 42.475 350.596,43.135 351.136,43.942 351.634 C 44.749 352.132,45.414 352.646,45.419 352.776 C 45.425 352.907,45.875 353.125,46.420 353.262 C 46.965 353.399,47.892 353.915,48.480 354.410 C 49.068 354.905,49.785 355.309,50.075 355.309 C 50.364 355.309,50.600 355.458,50.600 355.639 C 50.600 355.820,51.016 356.072,51.524 356.200 C 52.031 356.327,52.447 356.581,52.447 356.764 C 52.447 356.948,52.946 357.207,53.555 357.341 C 54.164 357.475,54.663 357.724,54.663 357.895 C 54.663 358.066,55.162 358.315,55.771 358.449 C 56.380 358.583,56.879 358.832,56.879 359.003 C 56.879 359.174,57.378 359.423,57.987 359.557 C 58.596 359.691,59.095 359.953,59.095 360.140 C 59.095 360.327,59.414 360.480,59.803 360.480 C 60.192 360.480,60.566 360.605,60.634 360.757 C 60.817 361.170,63.184 362.269,64.451 362.530 C 65.439 362.733,66.900 363.305,68.774 364.221 C 69.121 364.390,70.077 364.637,70.898 364.768 C 71.719 364.899,72.392 365.135,72.392 365.293 C 72.392 365.450,73.389 365.694,74.608 365.836 C 75.826 365.977,76.824 366.243,76.824 366.426 C 76.824 366.609,77.312 366.759,77.910 366.759 C 78.507 366.759,79.089 366.909,79.202 367.092 C 79.315 367.275,80.447 367.543,81.717 367.687 C 82.987 367.831,84.192 368.074,84.395 368.226 C 86.691 369.946,315.420 369.948,315.420 368.228 C 315.420 368.087,316.425 367.867,317.653 367.739 C 318.881 367.610,320.200 367.338,320.584 367.132 C 320.967 366.927,321.708 366.759,322.229 366.759 C 322.750 366.759,323.176 366.609,323.176 366.426 C 323.176 366.243,324.174 365.977,325.392 365.836 C 326.611 365.694,327.608 365.429,327.608 365.245 C 327.608 365.062,327.905 364.912,328.268 364.912 C 328.952 364.912,332.729 363.663,333.818 363.076 C 334.161 362.892,334.940 362.620,335.549 362.472 C 336.159 362.324,336.741 362.170,336.842 362.131 C 338.545 361.467,339.428 361.002,339.428 360.769 C 339.428 360.610,339.760 360.480,340.166 360.480 C 340.572 360.480,340.905 360.327,340.905 360.140 C 340.905 359.953,341.404 359.691,342.013 359.557 C 342.622 359.423,343.121 359.178,343.121 359.013 C 343.121 358.848,343.576 358.599,344.133 358.460 C 344.690 358.320,345.230 358.094,345.333 357.957 C 345.437 357.821,346.353 357.307,347.368 356.816 C 348.384 356.325,349.298 355.825,349.400 355.705 C 349.501 355.585,350.208 355.160,350.970 354.760 C 351.731 354.360,352.355 353.918,352.355 353.777 C 352.355 353.637,352.853 353.412,353.463 353.278 C 354.072 353.144,354.575 352.923,354.581 352.787 C 354.586 352.651,355.251 352.132,356.058 351.634 C 356.865 351.136,357.525 350.596,357.525 350.434 C 357.525 350.271,357.751 350.139,358.028 350.139 C 358.304 350.139,358.842 349.723,359.223 349.215 C 359.605 348.707,360.128 348.292,360.387 348.292 C 360.645 348.292,361.141 347.959,361.489 347.553 C 361.837 347.147,362.264 346.814,362.439 346.814 C 362.766 346.814,376.236 333.343,377.793 331.459 C 378.275 330.876,378.936 329.978,379.261 329.465 C 379.587 328.952,380.065 328.399,380.324 328.236 C 380.582 328.074,380.794 327.776,380.794 327.574 C 380.794 327.372,381.210 326.759,381.717 326.211 C 382.225 325.663,382.641 325.001,382.641 324.738 C 382.641 324.476,382.875 324.171,383.161 324.061 C 383.448 323.952,383.787 323.444,383.915 322.933 C 384.043 322.423,384.468 321.662,384.859 321.242 C 385.250 320.822,385.483 320.338,385.376 320.166 C 385.270 319.993,385.359 319.852,385.574 319.852 C 385.789 319.852,385.965 319.603,385.965 319.298 C 385.965 318.994,386.128 318.744,386.327 318.744 C 386.526 318.744,386.794 318.329,386.921 317.821 C 387.049 317.313,387.288 316.898,387.453 316.898 C 387.618 316.898,387.862 316.399,387.996 315.789 C 388.130 315.180,388.379 314.681,388.550 314.681 C 388.721 314.681,388.970 314.183,389.104 313.573 C 389.238 312.964,389.487 312.465,389.658 312.465 C 389.829 312.465,390.079 311.967,390.212 311.357 C 390.346 310.748,390.572 310.249,390.714 310.249 C 390.857 310.249,391.296 309.418,391.690 308.403 C 392.084 307.387,392.526 306.556,392.672 306.556 C 392.818 306.556,393.049 305.808,393.186 304.894 C 393.324 303.980,393.581 303.232,393.759 303.232 C 393.936 303.232,394.188 302.567,394.318 301.754 C 394.448 300.942,394.689 300.277,394.854 300.277 C 395.018 300.277,395.265 299.529,395.403 298.615 C 395.540 297.701,395.783 296.953,395.943 296.953 C 396.103 296.953,396.350 295.955,396.491 294.736 C 396.633 293.517,396.898 292.427,397.082 292.314 C 397.265 292.200,397.415 291.712,397.415 291.228 C 397.415 290.744,397.564 290.256,397.748 290.142 C 397.931 290.029,398.199 288.898,398.344 287.628 C 398.488 286.358,398.708 285.152,398.831 284.949 C 399.891 283.206,400.000 273.871,400.000 184.409 C 400.000 93.998,399.917 87.147,398.790 84.211 C 398.622 83.772,398.154 81.123,397.996 79.717 C 397.981 79.581,397.844 79.346,397.692 79.194 C 397.539 79.041,397.415 78.446,397.415 77.870 C 397.415 77.295,397.265 76.824,397.082 76.824 C 396.898 76.824,396.633 75.826,396.491 74.608 C 396.350 73.389,396.103 72.392,395.943 72.392 C 395.783 72.392,395.540 71.644,395.403 70.729 C 395.265 69.815,395.018 69.067,394.854 69.067 C 394.689 69.067,394.448 68.403,394.318 67.590 C 394.188 66.777,393.918 66.113,393.717 66.113 C 393.516 66.113,393.352 65.764,393.352 65.337 C 393.352 64.911,393.085 63.955,392.758 63.214 C 391.602 60.590,390.948 59.278,390.703 59.091 C 390.567 58.988,390.341 58.448,390.202 57.891 C 390.062 57.334,389.813 56.879,389.648 56.879 C 389.483 56.879,389.238 56.380,389.104 55.771 C 388.970 55.162,388.750 54.661,388.613 54.659 C 388.477 54.657,387.960 53.743,387.464 52.628 C 386.968 51.513,386.428 50.600,386.264 50.600 C 386.099 50.600,385.965 50.364,385.965 50.075 C 385.965 49.785,385.560 49.068,385.066 48.480 C 384.571 47.892,384.057 46.977,383.924 46.447 C 383.791 45.917,383.448 45.393,383.161 45.283 C 382.875 45.173,382.641 44.869,382.641 44.606 C 382.641 44.344,382.225 43.681,381.717 43.133 C 381.210 42.586,380.794 42.020,380.794 41.875 C 380.794 41.731,380.543 41.350,380.235 41.028 C 379.928 40.706,378.891 39.446,377.930 38.227 C 374.795 34.249,361.251 21.053,360.304 21.053 C 360.091 21.053,359.605 20.637,359.223 20.129 C 358.842 19.621,358.304 19.206,358.028 19.206 C 357.751 19.206,357.525 19.073,357.525 18.911 C 357.525 18.749,356.865 18.208,356.058 17.710 C 355.251 17.213,354.586 16.699,354.581 16.568 C 354.575 16.438,354.141 16.223,353.616 16.092 C 353.091 15.960,352.304 15.520,351.869 15.114 C 351.433 14.708,350.699 14.281,350.238 14.165 C 349.777 14.050,349.400 13.839,349.400 13.696 C 349.400 13.554,348.487 13.032,347.372 12.536 C 346.257 12.040,345.343 11.523,345.341 11.387 C 345.339 11.250,344.838 11.030,344.229 10.896 C 343.620 10.762,343.121 10.517,343.121 10.352 C 343.121 10.187,342.666 9.938,342.109 9.798 C 341.552 9.659,341.012 9.429,340.909 9.288 C 340.511 8.746,336.772 7.038,335.454 6.796 C 334.694 6.656,333.989 6.431,333.887 6.296 C 333.635 5.959,328.998 4.432,328.229 4.432 C 327.888 4.432,327.608 4.282,327.608 4.099 C 327.608 3.916,326.611 3.650,325.392 3.509 C 324.174 3.367,323.176 3.102,323.176 2.918 C 323.176 2.735,322.688 2.585,322.090 2.585 C 321.493 2.585,320.908 2.430,320.790 2.240 C 320.673 2.049,320.289 1.898,319.937 1.902 C 318.938 1.916,316.420 1.451,315.605 1.103 C 313.217 0.084,303.914 -0.001,199.446 0.049 C 140.434 0.077,90.905 0.237,89.381 0.405 M302.862 22.698 C 303.980 23.055,305.418 23.578,306.058 23.862 C 306.698 24.145,307.328 24.377,307.458 24.377 C 308.356 24.377,317.645 29.493,319.668 31.102 C 319.871 31.263,322.364 33.078,325.208 35.134 C 333.444 41.089,334.846 42.801,336.661 49.123 C 336.982 50.240,337.403 51.665,337.597 52.288 C 338.060 53.777,338.050 56.774,337.581 57.064 C 337.378 57.189,337.211 57.676,337.211 58.145 C 337.211 63.595,332.822 68.564,323.569 73.592 C 317.967 76.635,316.907 77.215,314.681 78.454 C 313.361 79.190,310.493 80.661,308.309 81.724 L 304.337 83.657 304.544 85.319 C 304.658 86.233,304.912 87.729,305.108 88.643 C 305.305 89.557,305.613 91.385,305.794 92.705 C 306.152 95.326,306.939 99.986,307.852 104.894 C 308.173 106.620,308.587 108.864,308.771 109.880 C 308.955 110.896,309.272 112.308,309.475 113.019 C 309.678 113.730,310.115 115.559,310.446 117.082 C 311.201 120.557,312.262 124.809,313.003 127.331 C 314.692 133.074,315.827 136.744,317.431 141.644 C 317.963 143.269,318.666 145.512,318.993 146.630 C 319.320 147.747,319.718 149.077,319.879 149.584 C 320.233 150.707,322.227 159.329,322.782 162.142 C 324.559 171.145,324.560 185.031,322.783 195.568 C 321.204 204.935,320.659 207.286,318.164 215.512 C 316.488 221.034,315.979 222.605,315.409 224.007 C 315.161 224.617,314.825 225.448,314.660 225.854 C 314.496 226.260,314.109 227.175,313.799 227.886 C 313.489 228.596,312.390 231.308,311.357 233.912 C 309.663 238.181,308.880 240.028,307.025 244.137 C 305.496 247.523,300.792 254.152,297.220 257.952 C 294.575 260.767,294.732 258.782,295.184 283.657 C 295.466 299.157,295.464 306.098,295.176 308.218 C 294.576 312.644,294.001 315.885,293.670 316.713 C 293.508 317.119,293.079 318.366,292.717 319.483 C 291.857 322.138,290.152 325.746,288.392 328.631 C 287.616 329.904,286.981 331.078,286.981 331.239 C 286.981 331.686,285.089 333.341,283.841 333.987 C 282.125 334.874,280.074 335.734,279.672 335.734 C 279.472 335.734,278.833 335.982,278.251 336.286 C 277.669 336.589,276.935 336.839,276.620 336.840 C 276.306 336.841,275.890 336.977,275.697 337.142 C 275.504 337.307,274.100 337.820,272.576 338.283 C 271.053 338.745,269.474 339.257,269.067 339.419 C 268.661 339.582,267.331 339.970,266.113 340.282 C 264.894 340.594,263.192 341.034,262.330 341.260 C 261.468 341.486,259.723 341.816,258.452 341.993 C 257.180 342.171,255.060 342.489,253.740 342.702 C 245.609 344.009,244.131 344.044,196.861 344.044 C 161.606 344.044,149.504 343.933,147.553 343.591 C 146.131 343.342,143.804 342.969,142.382 342.762 C 138.268 342.163,135.845 341.711,134.257 341.247 C 133.444 341.009,131.948 340.571,130.933 340.273 C 128.068 339.434,124.136 337.969,121.699 336.833 C 120.480 336.264,118.612 335.432,117.547 334.984 C 114.249 333.595,113.203 332.066,109.341 322.992 C 105.596 314.193,104.005 302.075,104.905 289.197 C 106.579 265.236,105.302 259.879,95.066 247.932 C 92.356 244.769,90.721 241.848,88.082 235.457 C 87.327 233.629,86.480 231.609,86.199 230.969 C 85.918 230.329,85.688 229.620,85.688 229.394 C 85.688 229.168,85.523 228.695,85.321 228.342 C 84.980 227.745,84.450 226.438,82.666 221.791 C 80.529 216.228,78.729 208.958,76.949 198.707 C 76.005 193.271,76.004 174.554,76.947 167.498 C 77.634 162.359,78.513 156.972,79.056 154.571 C 79.240 153.758,79.652 151.930,79.972 150.508 C 80.992 145.972,82.038 141.678,82.402 140.536 C 82.596 139.926,83.321 137.433,84.014 134.995 C 84.707 132.558,85.541 129.732,85.868 128.717 C 86.794 125.845,87.544 123.298,87.880 121.884 C 88.049 121.173,88.471 119.594,88.819 118.375 C 89.166 117.156,89.685 115.203,89.970 114.035 C 90.256 112.867,90.747 110.873,91.061 109.603 C 91.609 107.390,92.346 104.008,93.053 100.462 C 93.793 96.749,95.625 90.477,96.896 87.304 C 98.548 83.179,98.587 83.566,96.491 83.263 C 95.526 83.124,94.571 82.886,94.367 82.735 C 94.164 82.584,93.354 82.344,92.568 82.202 C 91.781 82.060,90.867 81.804,90.536 81.633 C 90.206 81.461,89.104 81.036,88.089 80.688 C 85.158 79.682,83.355 78.869,78.670 76.439 C 73.318 73.662,66.374 67.359,62.863 62.089 C 59.589 57.176,59.526 57.008,60.183 54.874 C 61.722 49.869,62.268 48.394,63.027 47.191 C 63.505 46.433,63.897 45.725,63.897 45.618 C 63.897 42.181,83.612 25.115,87.582 25.115 C 87.881 25.115,88.283 24.967,88.476 24.785 C 90.183 23.178,110.179 22.128,111.621 23.570 C 111.862 23.810,112.286 24.007,112.563 24.007 C 113.324 24.007,116.882 25.707,117.578 26.403 C 118.038 26.862,118.190 27.696,118.190 29.744 L 118.190 32.472 121.237 32.580 L 124.284 32.687 124.392 35.734 C 124.519 39.341,124.177 39.209,130.379 38.037 C 140.307 36.161,143.272 35.321,153.396 31.520 C 158.856 29.469,162.556 28.401,169.160 26.967 C 180.599 24.483,218.479 24.467,229.329 26.941 C 237.092 28.711,248.998 32.294,250.231 33.231 C 250.434 33.386,251.540 33.858,252.690 34.282 C 253.839 34.705,255.501 35.370,256.383 35.759 C 263.550 38.917,263.321 38.851,267.804 39.054 L 272.081 39.247 278.700 32.706 C 289.468 22.063,294.431 20.008,302.862 22.698 M296.214 36.891 C 292.045 37.986,289.553 39.844,284.765 45.428 C 283.647 46.730,282.043 48.552,281.200 49.475 C 278.848 52.052,278.867 52.202,282.215 57.830 C 283.657 60.252,285.340 63.149,285.956 64.266 C 287.435 66.951,287.945 67.493,289.728 68.276 C 293.280 69.838,299.062 69.997,302.678 68.632 C 304.276 68.029,309.293 65.659,309.511 65.405 C 309.612 65.286,310.992 64.524,312.577 63.712 C 314.161 62.899,315.740 62.067,316.085 61.863 C 316.430 61.658,318.084 60.754,319.760 59.853 L 322.807 58.214 322.807 55.231 C 322.807 51.578,320.885 48.814,314.866 43.813 C 311.350 40.891,311.228 40.799,310.511 40.524 C 310.165 40.391,308.949 39.686,307.809 38.956 C 303.426 36.153,300.804 35.686,296.214 36.891 M94.694 39.199 C 92.483 40.658,88.306 43.429,85.411 45.357 L 80.148 48.862 80.148 50.784 C 80.148 51.841,80.299 53.188,80.483 53.777 C 80.667 54.366,81.198 56.094,81.662 57.618 C 82.828 61.450,83.643 62.094,91.228 65.182 C 92.548 65.720,94.294 66.461,95.106 66.829 C 95.919 67.197,97.498 67.868,98.615 68.319 C 99.732 68.770,101.251 69.389,101.989 69.694 C 105.214 71.028,106.533 70.394,111.626 65.063 C 121.903 54.306,119.699 47.221,103.416 38.682 C 98.727 36.223,99.252 36.192,94.694 39.199 M188.550 38.437 C 183.993 38.814,175.594 40.145,172.484 40.983 C 166.011 42.727,162.724 43.803,158.079 45.701 C 139.097 53.457,127.852 64.027,115.498 85.725 C 114.195 88.013,109.955 96.506,108.970 98.800 C 108.534 99.815,108.022 100.979,107.832 101.385 C 107.318 102.483,105.684 106.938,104.716 109.880 C 104.249 111.302,103.661 112.964,103.411 113.573 C 103.160 114.183,102.821 115.014,102.658 115.420 C 102.494 115.826,102.009 117.405,101.578 118.929 C 101.148 120.452,100.400 123.029,99.916 124.654 C 98.260 130.210,95.691 141.711,94.512 148.846 C 92.467 161.219,91.628 171.907,91.610 185.833 C 91.597 196.225,91.656 196.870,93.310 204.617 C 95.091 212.953,99.343 224.150,102.988 230.102 C 103.423 230.813,103.894 231.644,104.033 231.948 C 104.953 233.955,111.769 241.982,113.753 243.395 L 114.760 244.111 120.524 232.582 C 123.694 226.241,126.456 220.596,126.662 220.037 L 127.036 219.021 131.898 219.021 L 136.759 219.021 136.512 221.145 C 136.376 222.313,136.110 223.767,135.921 224.377 C 135.732 224.986,135.294 226.814,134.948 228.440 C 134.233 231.800,132.178 239.996,131.291 243.029 C 130.964 244.146,130.568 245.559,130.412 246.168 C 130.255 246.777,129.934 247.858,129.700 248.569 C 127.416 255.492,126.917 256.928,126.682 257.248 C 125.351 259.062,122.685 269.840,121.840 276.824 C 119.622 295.171,119.233 308.503,120.795 312.650 C 122.693 317.691,130.999 323.940,138.269 325.798 C 147.089 328.052,146.453 328.034,204.617 327.665 C 265.601 327.277,261.296 327.580,270.846 322.996 C 275.050 320.978,275.717 320.295,276.450 317.258 C 276.767 315.942,277.190 314.284,277.390 313.573 C 277.753 312.284,278.245 309.662,278.845 305.817 C 279.269 303.099,279.265 286.815,278.839 283.102 C 278.331 278.672,277.062 271.453,276.268 268.474 C 276.030 267.581,275.604 265.978,275.321 264.910 C 274.001 259.925,273.791 259.209,270.522 248.569 C 269.432 245.017,268.579 242.453,268.129 241.367 C 267.721 240.382,264.713 231.186,263.961 228.624 C 263.133 225.803,262.525 221.965,262.668 220.465 L 262.789 219.206 265.743 219.090 C 270.267 218.911,272.554 219.281,272.926 220.251 C 273.096 220.692,273.483 221.717,273.787 222.530 C 274.710 224.998,275.604 227.269,276.135 228.495 C 276.412 229.135,276.639 229.915,276.639 230.228 C 276.639 230.541,276.805 230.899,277.008 231.025 C 277.211 231.150,277.378 231.509,277.378 231.822 C 277.378 232.135,277.607 232.914,277.888 233.555 C 278.169 234.195,279.191 236.837,280.159 239.428 C 282.153 244.764,281.884 244.572,285.935 243.543 C 289.395 242.664,294.737 238.221,294.737 236.223 C 294.737 236.135,295.210 235.012,295.789 233.728 C 296.368 232.445,297.057 230.813,297.322 230.102 C 297.586 229.391,298.012 228.310,298.268 227.701 C 298.525 227.091,299.106 225.512,299.559 224.192 C 300.012 222.872,300.620 221.133,300.909 220.329 C 301.198 219.524,301.686 217.945,301.993 216.820 C 308.452 193.164,308.436 171.157,301.941 142.936 C 301.591 141.413,301.175 139.584,301.018 138.873 C 300.861 138.163,300.456 136.584,300.116 135.365 C 299.777 134.146,299.086 131.570,298.579 129.640 C 298.073 127.710,297.501 125.633,297.308 125.023 C 296.869 123.634,294.899 116.832,294.154 114.127 C 293.017 110.005,292.878 109.477,292.495 107.849 C 292.281 106.934,291.943 105.439,291.744 104.524 C 291.545 103.610,291.223 102.574,291.028 102.221 C 290.834 101.868,290.674 101.325,290.674 101.014 C 290.674 100.328,287.911 91.994,287.000 89.935 C 286.641 89.123,286.115 87.886,285.833 87.187 C 279.598 71.775,265.864 56.183,253.313 50.269 C 249.921 48.670,241.802 45.429,241.190 45.429 C 240.977 45.429,240.514 45.273,240.161 45.082 C 239.808 44.890,238.523 44.458,237.304 44.120 C 236.085 43.783,234.672 43.362,234.164 43.184 C 229.472 41.545,216.336 39.192,207.572 38.421 C 203.101 38.028,193.394 38.036,188.550 38.437 M278.731 115.444 C 278.977 116.087,278.372 122.059,277.741 125.208 C 276.299 132.403,271.087 141.709,266.791 144.759 C 258.899 150.363,254.706 152.114,247.276 152.911 C 243.463 153.319,243.639 153.748,244.301 145.669 C 245.197 134.733,246.536 131.298,252.004 125.910 C 255.499 122.464,264.403 116.774,267.674 115.895 C 271.524 114.861,278.399 114.580,278.731 115.444 M127.978 115.934 C 135.933 117.737,143.091 122.987,153.924 134.964 L 156.233 137.516 156.233 145.224 C 156.233 151.677,156.144 152.966,155.688 153.141 C 154.598 153.559,146.136 152.127,145.355 151.392 C 145.163 151.211,144.769 151.062,144.482 151.062 C 142.279 151.062,132.215 144.620,129.917 141.738 C 124.058 134.393,121.237 126.936,121.172 118.622 L 121.145 115.175 123.638 115.345 C 125.009 115.439,126.962 115.704,127.978 115.934 M238.966 260.569 C 242.526 261.192,246.087 262.034,248.661 262.863 C 250.760 263.538,250.745 263.429,249.538 269.260 C 249.055 271.592,248.543 274.414,248.400 275.531 C 247.867 279.683,247.735 279.786,241.551 280.881 C 239.621 281.222,237.440 281.654,236.704 281.841 C 232.895 282.808,230.954 282.723,230.731 281.580 C 230.616 280.996,230.250 279.437,229.916 278.116 C 229.033 274.618,228.661 272.399,228.394 269.021 L 228.156 266.020 231.253 263.027 C 234.665 259.728,234.487 259.785,238.966 260.569 M164.174 261.949 C 168.512 263.049,168.618 263.131,169.159 265.807 C 169.357 266.788,169.942 269.584,170.459 272.022 C 172.191 280.190,172.470 279.381,167.498 280.619 C 161.620 282.083,160.807 282.242,158.147 282.449 L 155.444 282.659 153.464 280.703 C 150.210 277.490,149.439 275.333,149.279 269.006 L 149.147 263.773 150.133 263.127 C 153.168 261.139,159.036 260.646,164.174 261.949 " stroke="none" fill="#ebebeb" fill-rule="evenodd"></path><path id="path2" d="M182.923 25.750 C 183.484 25.835,184.315 25.832,184.770 25.745 C 185.224 25.657,184.765 25.588,183.749 25.590 C 182.733 25.593,182.361 25.665,182.923 25.750 M214.501 25.746 C 214.961 25.834,215.625 25.831,215.978 25.739 C 216.332 25.646,215.956 25.574,215.143 25.578 C 214.331 25.582,214.042 25.658,214.501 25.746 M192.340 37.934 C 192.800 38.023,193.465 38.019,193.818 37.927 C 194.171 37.834,193.795 37.762,192.982 37.766 C 192.170 37.770,191.881 37.846,192.340 37.934 M117.907 53.186 C 117.907 53.897,117.983 54.187,118.075 53.832 C 118.168 53.476,118.168 52.895,118.075 52.539 C 117.983 52.184,117.907 52.475,117.907 53.186 M76.214 184.303 C 76.214 186.030,76.278 186.736,76.355 185.873 C 76.433 185.009,76.433 183.596,76.355 182.733 C 76.278 181.870,76.214 182.576,76.214 184.303 M157.438 261.392 C 158.000 261.476,158.831 261.474,159.285 261.386 C 159.739 261.299,159.280 261.229,158.264 261.232 C 157.248 261.235,156.877 261.307,157.438 261.392 M149.350 267.221 C 149.351 269.252,149.413 270.036,149.488 268.963 C 149.563 267.889,149.562 266.227,149.486 265.269 C 149.410 264.311,149.349 265.189,149.350 267.221 M105.718 278.486 C 105.718 279.197,105.794 279.488,105.887 279.132 C 105.980 278.777,105.980 278.195,105.887 277.839 C 105.794 277.484,105.718 277.775,105.718 278.486 M104.980 289.566 C 104.980 290.277,105.056 290.568,105.148 290.212 C 105.241 289.857,105.241 289.275,105.148 288.920 C 105.056 288.564,104.980 288.855,104.980 289.566 M104.980 301.385 C 104.980 302.096,105.056 302.387,105.148 302.031 C 105.241 301.676,105.241 301.094,105.148 300.739 C 105.056 300.383,104.980 300.674,104.980 301.385 M150.416 328.232 C 150.771 328.325,151.353 328.325,151.708 328.232 C 152.064 328.140,151.773 328.064,151.062 328.064 C 150.351 328.064,150.060 328.140,150.416 328.232 M172.946 328.254 C 175.332 328.318,179.238 328.318,181.625 328.254 C 184.012 328.189,182.059 328.137,177.285 328.137 C 172.512 328.137,170.559 328.189,172.946 328.254 " stroke="none" fill="#b3b4bc" fill-rule="evenodd"></path><path id="path3" d="M99.261 23.544 C 101.140 23.611,104.215 23.611,106.094 23.544 C 107.973 23.477,106.436 23.422,102.678 23.422 C 98.920 23.422,97.382 23.477,99.261 23.544 M192.312 25.761 C 196.209 25.821,202.691 25.821,206.716 25.761 C 210.742 25.702,207.553 25.653,199.631 25.653 C 191.708 25.653,188.415 25.701,192.312 25.761 M117.448 29.472 L 117.630 32.687 117.742 29.767 C 117.804 28.161,117.722 26.715,117.560 26.552 C 117.399 26.390,117.349 27.704,117.448 29.472 M174.612 26.485 C 175.071 26.573,175.736 26.570,176.089 26.477 C 176.442 26.385,176.066 26.312,175.254 26.317 C 174.441 26.321,174.152 26.396,174.612 26.485 M222.438 26.478 C 222.793 26.571,223.375 26.571,223.730 26.478 C 224.086 26.385,223.795 26.309,223.084 26.309 C 222.373 26.309,222.082 26.385,222.438 26.478 M229.455 27.586 C 229.811 27.679,230.392 27.679,230.748 27.586 C 231.103 27.493,230.813 27.417,230.102 27.417 C 229.391 27.417,229.100 27.493,229.455 27.586 M163.620 28.440 C 162.859 28.683,162.826 28.741,163.435 28.766 C 163.841 28.784,164.423 28.636,164.728 28.440 C 165.375 28.021,164.925 28.021,163.620 28.440 M233.795 28.423 C 234.100 28.629,234.668 28.800,235.057 28.803 C 236.002 28.811,235.707 28.599,234.349 28.296 C 233.540 28.115,233.390 28.149,233.795 28.423 M77.910 31.053 L 75.900 32.928 78.024 31.167 C 79.973 29.551,80.350 29.178,80.033 29.178 C 79.971 29.178,79.015 30.022,77.910 31.053 M73.670 34.811 L 71.837 36.750 73.777 34.917 C 74.843 33.909,75.716 33.036,75.716 32.978 C 75.716 32.702,75.373 33.009,73.670 34.811 M119.402 33.144 C 120.373 33.220,121.869 33.219,122.726 33.142 C 123.583 33.064,122.789 33.002,120.960 33.003 C 119.132 33.004,118.431 33.067,119.402 33.144 M124.259 36.468 C 124.279 38.734,124.399 39.335,124.838 39.367 C 125.143 39.389,125.191 39.338,124.946 39.254 C 124.667 39.159,124.449 38.068,124.367 36.355 L 124.234 33.608 124.259 36.468 M298.707 36.097 C 299.571 36.175,300.983 36.175,301.847 36.097 C 302.710 36.019,302.004 35.955,300.277 35.955 C 298.550 35.955,297.844 36.019,298.707 36.097 M101.200 37.100 C 101.200 37.202,101.699 37.543,102.308 37.858 C 102.918 38.173,103.416 38.348,103.416 38.246 C 103.416 38.145,102.918 37.804,102.308 37.488 C 101.699 37.173,101.200 36.999,101.200 37.100 M132.041 38.042 C 131.099 38.447,132.070 38.447,133.333 38.042 C 134.076 37.805,134.112 37.745,133.518 37.736 C 133.112 37.730,132.447 37.868,132.041 38.042 M189.755 37.934 C 190.214 38.023,190.879 38.019,191.232 37.927 C 191.586 37.834,191.210 37.762,190.397 37.766 C 189.584 37.770,189.296 37.846,189.755 37.934 M205.637 37.934 C 206.096 38.023,206.761 38.019,207.114 37.927 C 207.467 37.834,207.091 37.762,206.279 37.766 C 205.466 37.770,205.177 37.846,205.637 37.934 M186.062 38.304 C 186.521 38.392,187.186 38.389,187.539 38.296 C 187.892 38.204,187.516 38.132,186.704 38.136 C 185.891 38.140,185.602 38.215,186.062 38.304 M208.957 38.303 C 209.414 38.391,210.162 38.391,210.619 38.303 C 211.076 38.215,210.702 38.143,209.788 38.143 C 208.873 38.143,208.500 38.215,208.957 38.303 M328.717 38.140 C 328.717 38.222,329.423 38.850,330.286 39.536 C 331.150 40.222,331.621 40.491,331.335 40.134 C 330.795 39.462,328.717 37.879,328.717 38.140 M68.490 39.982 L 67.405 41.182 68.606 40.097 C 69.266 39.500,69.806 38.960,69.806 38.897 C 69.806 38.611,69.501 38.863,68.490 39.982 M286.972 42.382 L 283.841 45.614 287.073 42.483 C 290.075 39.575,290.473 39.151,290.204 39.151 C 290.149 39.151,288.695 40.605,286.972 42.382 M173.407 40.259 C 172.942 40.459,172.873 40.576,173.223 40.576 C 173.527 40.576,174.109 40.433,174.515 40.259 C 174.981 40.058,175.049 39.941,174.700 39.941 C 174.395 39.941,173.813 40.084,173.407 40.259 M222.899 40.259 C 223.306 40.433,223.887 40.576,224.192 40.576 C 224.541 40.576,224.473 40.459,224.007 40.259 C 223.601 40.084,223.019 39.941,222.715 39.941 C 222.365 39.941,222.434 40.058,222.899 40.259 M65.829 43.121 C 64.873 44.502,64.562 45.060,64.749 45.060 C 64.836 45.060,65.346 44.395,65.884 43.583 C 66.977 41.931,66.929 41.532,65.829 43.121 M231.610 42.238 C 231.694 42.311,232.262 42.482,232.872 42.619 C 233.681 42.800,233.830 42.765,233.426 42.491 C 232.927 42.154,231.239 41.918,231.610 42.238 M314.681 42.960 C 314.681 43.023,315.222 43.563,315.882 44.160 L 317.082 45.245 315.997 44.044 C 314.986 42.925,314.681 42.674,314.681 42.960 M83.373 45.997 C 82.615 46.512,81.994 47.013,81.994 47.110 C 81.994 47.207,82.659 46.847,83.472 46.309 C 84.762 45.455,85.198 45.060,84.850 45.060 C 84.796 45.060,84.131 45.482,83.373 45.997 M318.375 46.653 C 318.375 46.717,318.915 47.257,319.575 47.853 L 320.776 48.938 319.691 47.738 C 318.680 46.619,318.375 46.368,318.375 46.653 M280.313 49.769 L 279.040 51.154 280.425 49.881 C 281.714 48.697,281.980 48.384,281.698 48.384 C 281.636 48.384,281.013 49.007,280.313 49.769 M79.864 52.447 C 79.864 53.158,79.940 53.449,80.033 53.093 C 80.126 52.738,80.126 52.156,80.033 51.801 C 79.940 51.445,79.864 51.736,79.864 52.447 M322.940 55.032 C 322.940 56.962,323.002 57.752,323.079 56.787 C 323.155 55.822,323.155 54.243,323.079 53.278 C 323.002 52.313,322.940 53.102,322.940 55.032 M138.227 56.533 C 137.161 57.351,136.288 58.102,136.288 58.201 C 136.288 58.299,137.202 57.690,138.319 56.847 C 140.083 55.515,140.620 55.015,140.259 55.038 C 140.208 55.042,139.294 55.714,138.227 56.533 M266.377 58.915 C 267.132 59.705,267.810 60.276,267.883 60.185 C 267.956 60.093,267.339 59.447,266.510 58.749 L 265.005 57.480 266.377 58.915 M284.211 62.419 C 284.526 63.029,284.867 63.527,284.968 63.527 C 285.070 63.527,284.895 63.029,284.580 62.419 C 284.265 61.810,283.924 61.311,283.822 61.311 C 283.721 61.311,283.895 61.810,284.211 62.419 M130.180 63.620 L 128.347 65.559 130.286 63.726 C 131.353 62.718,132.225 61.845,132.225 61.787 C 132.225 61.511,131.883 61.818,130.180 63.620 M271.680 64.301 C 272.274 65.031,272.835 65.566,272.927 65.489 C 273.018 65.413,272.531 64.815,271.845 64.162 L 270.598 62.973 271.680 64.301 M111.343 65.836 L 109.511 67.775 111.450 65.942 C 113.251 64.239,113.558 63.897,113.283 63.897 C 113.224 63.897,112.352 64.769,111.343 65.836 M64.635 64.381 C 64.635 64.445,65.175 64.985,65.836 65.582 L 67.036 66.667 65.951 65.466 C 64.940 64.347,64.635 64.096,64.635 64.381 M286.568 66.361 C 287.036 67.282,288.729 68.703,289.339 68.687 C 289.565 68.681,289.418 68.499,289.012 68.283 C 288.606 68.066,287.798 67.365,287.217 66.724 C 286.515 65.950,286.298 65.828,286.568 66.361 M66.851 66.967 C 66.851 67.030,67.392 67.571,68.052 68.167 L 69.252 69.252 68.167 68.052 C 67.156 66.933,66.851 66.682,66.851 66.967 M98.984 69.005 C 99.289 69.193,99.954 69.459,100.462 69.594 C 101.103 69.766,101.216 69.737,100.831 69.499 C 100.526 69.311,99.861 69.046,99.354 68.910 C 98.712 68.738,98.599 68.767,98.984 69.005 M301.570 69.266 C 300.107 69.772,300.105 69.775,301.385 69.565 C 302.096 69.448,302.927 69.210,303.232 69.036 C 304.045 68.573,303.259 68.681,301.570 69.266 M291.228 69.437 C 291.634 69.611,292.216 69.754,292.521 69.754 C 292.870 69.754,292.802 69.637,292.336 69.437 C 291.930 69.262,291.348 69.119,291.043 69.119 C 290.694 69.119,290.762 69.237,291.228 69.437 M96.060 82.866 C 96.145 82.939,96.713 83.110,97.322 83.246 C 98.131 83.427,98.281 83.393,97.876 83.119 C 97.378 82.782,95.690 82.546,96.060 82.866 M304.425 87.535 C 304.425 88.246,304.501 88.536,304.594 88.181 C 304.687 87.825,304.687 87.244,304.594 86.888 C 304.501 86.533,304.425 86.824,304.425 87.535 M306.249 98.984 C 306.268 99.944,306.850 101.520,306.862 100.646 C 306.868 100.240,306.730 99.575,306.556 99.169 C 306.361 98.716,306.243 98.645,306.249 98.984 M293.485 110.619 C 293.789 111.977,294.000 112.272,293.992 111.327 C 293.989 110.937,293.818 110.369,293.612 110.065 C 293.338 109.660,293.304 109.809,293.485 110.619 M308.408 110.649 C 308.411 111.039,308.583 111.607,308.789 111.911 C 309.063 112.316,309.097 112.167,308.916 111.357 C 308.612 109.999,308.401 109.704,308.408 110.649 M309.516 115.451 C 309.519 115.840,309.691 116.408,309.897 116.713 C 310.171 117.117,310.205 116.968,310.024 116.159 C 309.720 114.801,309.509 114.506,309.516 115.451 M274.322 115.502 C 274.978 115.584,276.141 115.585,276.908 115.505 C 277.674 115.425,277.138 115.358,275.716 115.357 C 274.294 115.355,273.667 115.420,274.322 115.502 M268.513 115.974 C 267.753 116.218,267.720 116.275,268.329 116.301 C 268.735 116.318,269.317 116.171,269.621 115.974 C 270.269 115.556,269.819 115.556,268.513 115.974 M278.347 116.173 C 278.220 116.503,278.140 117.466,278.168 118.313 C 278.217 119.761,278.236 119.732,278.479 117.821 C 278.754 115.655,278.718 115.206,278.347 116.173 M121.263 118.560 C 121.263 119.880,121.330 120.420,121.412 119.760 C 121.494 119.100,121.494 118.019,121.412 117.359 C 121.330 116.699,121.263 117.239,121.263 118.560 M132.995 117.959 C 133.375 118.299,135.549 119.298,135.549 119.133 C 135.549 118.920,133.502 117.821,133.105 117.821 C 132.960 117.821,132.910 117.883,132.995 117.959 M254.270 124.192 L 253.186 125.392 254.386 124.308 C 255.046 123.711,255.586 123.171,255.586 123.107 C 255.586 122.822,255.282 123.073,254.270 124.192 M277.193 124.838 C 277.053 125.477,277.015 126.076,277.109 126.170 C 277.203 126.264,277.386 125.811,277.516 125.162 C 277.824 123.622,277.526 123.324,277.193 124.838 M146.445 127.793 C 148.469 129.825,150.208 131.487,150.309 131.487 C 150.411 131.487,148.838 129.825,146.814 127.793 C 144.791 125.762,143.052 124.100,142.950 124.100 C 142.849 124.100,144.421 125.762,146.445 127.793 M250.078 128.304 L 249.186 129.455 250.243 128.451 C 250.824 127.898,251.225 127.380,251.135 127.299 C 251.044 127.218,250.568 127.670,250.078 128.304 M151.431 133.080 C 151.431 133.143,151.971 133.683,152.632 134.280 L 153.832 135.365 152.747 134.164 C 151.736 133.045,151.431 132.794,151.431 133.080 M245.657 136.720 C 245.633 137.058,245.518 137.640,245.401 138.012 C 245.200 138.654,245.211 138.655,245.611 138.031 C 245.843 137.669,245.958 137.087,245.866 136.738 C 245.716 136.166,245.695 136.164,245.657 136.720 M130.748 142.382 C 131.437 143.093,132.084 143.675,132.186 143.675 C 132.287 143.675,131.806 143.093,131.117 142.382 C 130.428 141.671,129.781 141.090,129.680 141.090 C 129.578 141.090,130.059 141.671,130.748 142.382 M301.980 142.013 C 302.284 143.371,302.495 143.666,302.487 142.721 C 302.484 142.331,302.313 141.764,302.107 141.459 C 301.833 141.054,301.799 141.204,301.980 142.013 M244.633 144.968 C 244.634 146.593,244.699 147.212,244.777 146.343 C 244.855 145.474,244.854 144.145,244.774 143.388 C 244.695 142.632,244.631 143.343,244.633 144.968 M265.701 144.846 C 264.200 145.976,263.770 146.420,264.635 145.947 C 265.596 145.421,267.287 144.063,266.993 144.053 C 266.869 144.048,266.287 144.405,265.701 144.846 M155.494 148.641 L 155.494 152.499 153.740 152.637 L 151.985 152.775 153.924 152.842 L 155.863 152.909 155.863 148.846 C 155.863 146.611,155.780 144.783,155.679 144.783 C 155.577 144.783,155.494 146.519,155.494 148.641 M94.367 146.260 C 94.227 146.899,94.190 147.498,94.284 147.592 C 94.378 147.686,94.561 147.232,94.691 146.584 C 94.999 145.044,94.700 144.746,94.367 146.260 M302.925 146.260 C 302.944 147.220,303.525 148.796,303.538 147.922 C 303.544 147.516,303.406 146.851,303.232 146.445 C 303.037 145.992,302.919 145.921,302.925 146.260 M80.702 148.107 C 80.562 148.746,80.524 149.345,80.618 149.439 C 80.712 149.533,80.895 149.079,81.025 148.430 C 81.333 146.891,81.034 146.592,80.702 148.107 M244.199 151.339 C 244.138 152.887,244.153 152.908,245.337 152.853 C 246.423 152.803,246.443 152.783,245.543 152.646 C 244.704 152.518,244.525 152.281,244.404 151.132 L 244.261 149.769 244.199 151.339 M254.663 150.890 C 253.739 151.335,253.709 151.386,254.478 151.198 C 255.525 150.942,256.701 150.343,256.140 150.351 C 255.937 150.354,255.272 150.597,254.663 150.890 M78.512 158.290 C 78.376 158.832,78.336 159.346,78.423 159.433 C 78.510 159.520,78.693 159.148,78.829 158.607 C 78.965 158.066,79.004 157.552,78.917 157.465 C 78.830 157.378,78.648 157.749,78.512 158.290 M92.429 160.480 C 92.433 161.293,92.509 161.582,92.597 161.122 C 92.686 160.663,92.682 159.998,92.590 159.645 C 92.497 159.292,92.425 159.668,92.429 160.480 M77.648 165.097 C 77.648 165.808,77.724 166.099,77.817 165.743 C 77.910 165.388,77.910 164.806,77.817 164.451 C 77.724 164.095,77.648 164.386,77.648 165.097 M306.287 166.205 C 306.287 167.119,306.359 167.493,306.447 167.036 C 306.535 166.579,306.535 165.831,306.447 165.374 C 306.359 164.917,306.287 165.291,306.287 166.205 M306.642 169.529 C 306.642 170.240,306.718 170.531,306.810 170.175 C 306.903 169.820,306.903 169.238,306.810 168.883 C 306.718 168.527,306.642 168.818,306.642 169.529 M323.287 170.268 C 323.287 171.385,323.356 171.842,323.441 171.283 C 323.526 170.725,323.526 169.811,323.441 169.252 C 323.356 168.693,323.287 169.151,323.287 170.268 M91.343 173.407 C 91.345 174.626,91.414 175.080,91.496 174.416 C 91.578 173.752,91.576 172.755,91.492 172.200 C 91.408 171.645,91.340 172.188,91.343 173.407 M323.692 178.763 C 323.692 181.708,323.750 182.913,323.820 181.440 C 323.890 179.968,323.890 177.558,323.820 176.085 C 323.750 174.612,323.692 175.817,323.692 178.763 M76.589 177.839 C 76.590 179.871,76.652 180.655,76.727 179.581 C 76.802 178.508,76.801 176.846,76.725 175.888 C 76.649 174.930,76.588 175.808,76.589 177.839 M307.075 181.163 C 307.075 184.414,307.132 185.694,307.200 184.008 C 307.269 182.323,307.268 179.663,307.199 178.099 C 307.130 176.534,307.074 177.913,307.075 181.163 M323.287 187.258 C 323.287 188.375,323.356 188.832,323.441 188.273 C 323.526 187.715,323.526 186.801,323.441 186.242 C 323.356 185.683,323.287 186.140,323.287 187.258 M76.583 190.212 C 76.583 191.939,76.647 192.645,76.725 191.782 C 76.802 190.919,76.802 189.506,76.725 188.643 C 76.647 187.779,76.583 188.486,76.583 190.212 M91.329 196.491 C 91.329 197.405,91.401 197.779,91.489 197.322 C 91.577 196.865,91.577 196.117,91.489 195.660 C 91.401 195.203,91.329 195.577,91.329 196.491 M306.292 196.676 C 306.295 197.692,306.367 198.063,306.452 197.502 C 306.536 196.940,306.534 196.109,306.447 195.655 C 306.359 195.201,306.289 195.660,306.292 196.676 M322.154 196.122 C 322.154 196.833,322.230 197.124,322.323 196.768 C 322.416 196.413,322.416 195.831,322.323 195.476 C 322.230 195.120,322.154 195.411,322.154 196.122 M92.342 202.986 C 92.345 203.375,92.516 203.943,92.722 204.247 C 92.996 204.652,93.030 204.503,92.849 203.693 C 92.546 202.335,92.334 202.041,92.342 202.986 M320.063 206.675 C 319.927 207.216,319.888 207.730,319.975 207.817 C 320.062 207.904,320.244 207.532,320.380 206.991 C 320.516 206.450,320.556 205.936,320.469 205.849 C 320.382 205.762,320.199 206.133,320.063 206.675 M304.155 209.049 C 304.015 209.687,303.977 210.287,304.071 210.381 C 304.165 210.475,304.349 210.021,304.478 209.372 C 304.608 208.723,304.646 208.124,304.562 208.040 C 304.479 207.957,304.295 208.410,304.155 209.049 M127.295 219.668 C 127.201 219.820,129.191 219.893,131.718 219.831 L 136.313 219.717 136.107 220.754 C 135.915 221.727,135.925 221.738,136.280 220.926 C 136.489 220.450,136.566 219.910,136.452 219.726 C 136.204 219.325,127.543 219.270,127.295 219.668 M264.912 219.664 C 266.080 219.737,267.992 219.737,269.160 219.664 C 270.328 219.590,269.372 219.530,267.036 219.530 C 264.700 219.530,263.744 219.590,264.912 219.664 M263.074 221.607 C 263.074 222.521,263.146 222.895,263.234 222.438 C 263.322 221.981,263.322 221.233,263.234 220.776 C 263.146 220.319,263.074 220.693,263.074 221.607 M274.115 224.950 C 274.332 225.569,274.577 226.008,274.661 225.924 C 274.844 225.741,274.147 223.823,273.897 223.823 C 273.801 223.823,273.899 224.330,274.115 224.950 M133.194 233.255 C 133.068 233.585,132.978 234.133,132.996 234.472 C 133.013 234.810,133.174 234.597,133.353 233.998 C 133.701 232.833,133.578 232.256,133.194 233.255 M107.110 237.119 C 107.753 237.932,108.363 238.596,108.465 238.596 C 108.566 238.596,108.123 237.932,107.479 237.119 C 106.836 236.307,106.226 235.642,106.124 235.642 C 106.023 235.642,106.466 236.307,107.110 237.119 M132.067 238.069 C 131.931 238.610,131.891 239.124,131.978 239.211 C 132.065 239.298,132.248 238.927,132.384 238.385 C 132.519 237.844,132.559 237.330,132.472 237.243 C 132.385 237.156,132.203 237.528,132.067 238.069 M110.988 241.551 C 111.781 242.364,112.514 243.029,112.615 243.029 C 112.717 243.029,112.151 242.364,111.357 241.551 C 110.564 240.739,109.832 240.074,109.730 240.074 C 109.628 240.074,110.195 240.739,110.988 241.551 M281.082 243.630 C 281.066 244.239,282.078 244.976,282.628 244.755 C 282.934 244.632,282.879 244.554,282.474 244.535 C 282.129 244.519,281.677 244.215,281.470 243.860 C 281.263 243.504,281.089 243.401,281.082 243.630 M96.431 249.166 C 96.921 249.800,97.397 250.252,97.487 250.171 C 97.578 250.090,97.177 249.572,96.596 249.019 L 95.539 248.015 96.431 249.166 M238.966 261.131 C 239.271 261.326,240.005 261.487,240.597 261.490 C 242.026 261.498,241.715 261.284,239.889 261.005 C 238.883 260.850,238.589 260.891,238.966 261.131 M244.321 262.235 C 244.728 262.409,245.309 262.552,245.614 262.552 C 245.963 262.552,245.895 262.435,245.429 262.235 C 245.023 262.060,244.441 261.917,244.137 261.917 C 243.787 261.917,243.856 262.034,244.321 262.235 M294.129 265.005 C 294.128 266.833,294.191 267.627,294.268 266.770 C 294.346 265.913,294.346 264.417,294.270 263.446 C 294.194 262.475,294.130 263.176,294.129 265.005 M149.988 263.486 C 149.700 263.833,149.600 265.594,149.677 268.934 L 149.793 273.869 149.873 268.809 C 149.943 264.432,150.041 263.698,150.600 263.372 C 150.956 263.165,151.059 262.991,150.830 262.984 C 150.601 262.978,150.222 263.204,149.988 263.486 M123.572 264.292 C 123.436 264.834,123.396 265.348,123.483 265.435 C 123.570 265.522,123.753 265.150,123.889 264.609 C 124.025 264.068,124.064 263.554,123.977 263.466 C 123.890 263.379,123.708 263.751,123.572 264.292 M168.484 265.005 C 168.478 265.411,168.616 266.076,168.790 266.482 C 169.195 267.423,169.195 266.452,168.790 265.189 C 168.553 264.447,168.493 264.411,168.484 265.005 M105.524 268.163 C 105.640 269.067,105.794 269.875,105.868 269.960 C 106.169 270.306,105.964 267.549,105.652 267.055 C 105.433 266.709,105.388 267.100,105.524 268.163 M294.519 274.977 C 294.518 278.430,294.574 279.893,294.642 278.227 C 294.710 276.561,294.711 273.735,294.643 271.948 C 294.575 270.161,294.519 271.524,294.519 274.977 M228.867 271.653 C 228.990 272.465,229.153 273.199,229.227 273.284 C 229.507 273.601,229.298 271.623,228.976 270.914 C 228.743 270.399,228.710 270.623,228.867 271.653 M106.128 274.608 C 106.130 276.233,106.195 276.852,106.273 275.983 C 106.351 275.114,106.350 273.784,106.270 273.028 C 106.191 272.272,106.127 272.982,106.128 274.608 M121.751 273.762 C 121.626 274.227,121.540 275.023,121.560 275.531 C 121.581 276.075,121.727 275.781,121.917 274.816 C 122.256 273.086,122.136 272.324,121.751 273.762 M248.067 273.762 C 247.942 274.227,247.855 274.940,247.872 275.346 C 247.890 275.753,248.056 275.437,248.242 274.644 C 248.602 273.109,248.449 272.336,248.067 273.762 M277.810 274.792 C 277.829 275.752,278.410 277.328,278.423 276.454 C 278.429 276.048,278.291 275.383,278.116 274.977 C 277.922 274.524,277.803 274.453,277.810 274.792 M229.784 276.270 C 229.784 276.574,229.927 277.156,230.102 277.562 C 230.302 278.028,230.419 278.096,230.419 277.747 C 230.419 277.442,230.276 276.861,230.102 276.454 C 229.901 275.989,229.784 275.920,229.784 276.270 M151.431 277.938 C 151.431 278.066,152.371 279.156,153.519 280.360 C 155.681 282.627,156.343 282.869,158.449 282.167 C 159.070 281.960,158.761 281.923,157.508 282.057 L 155.643 282.254 153.537 279.980 C 152.379 278.729,151.431 277.810,151.431 277.938 M105.743 281.440 C 105.743 282.558,105.812 283.015,105.897 282.456 C 105.982 281.898,105.982 280.983,105.897 280.425 C 105.812 279.866,105.743 280.323,105.743 281.440 M241.736 280.350 C 241.221 280.583,241.445 280.616,242.475 280.459 C 243.287 280.336,244.021 280.173,244.106 280.099 C 244.423 279.819,242.445 280.028,241.736 280.350 M120.640 282.212 C 120.511 282.854,120.427 283.982,120.453 284.718 C 120.485 285.623,120.600 285.285,120.808 283.673 C 121.135 281.147,121.032 280.252,120.640 282.212 M236.011 281.446 C 235.621 281.701,235.840 281.738,236.750 281.572 C 238.343 281.279,238.643 281.069,237.458 281.077 C 236.967 281.080,236.316 281.246,236.011 281.446 M279.118 283.287 C 279.230 284.608,279.383 285.757,279.458 285.842 C 279.705 286.122,279.512 283.123,279.210 281.994 C 279.024 281.296,278.989 281.774,279.118 283.287 M294.875 289.751 C 294.876 291.985,294.937 292.852,295.010 291.676 C 295.084 290.501,295.083 288.673,295.009 287.613 C 294.934 286.554,294.874 287.516,294.875 289.751 M279.747 295.106 C 279.747 298.864,279.802 300.402,279.869 298.523 C 279.936 296.644,279.936 293.569,279.869 291.690 C 279.802 289.811,279.747 291.348,279.747 295.106 M105.038 295.476 C 105.038 298.218,105.097 299.340,105.168 297.969 C 105.239 296.597,105.239 294.354,105.168 292.982 C 105.097 291.611,105.038 292.733,105.038 295.476 M295.257 300.092 C 295.257 303.546,295.312 305.008,295.381 303.342 C 295.449 301.676,295.449 298.851,295.381 297.063 C 295.314 295.276,295.258 296.639,295.257 300.092 M119.545 295.992 C 119.409 296.983,119.320 298.478,119.347 299.313 C 119.378 300.258,119.516 299.716,119.712 297.876 C 120.062 294.599,119.934 293.155,119.545 295.992 M119.040 305.078 C 119.040 306.196,119.109 306.653,119.193 306.094 C 119.278 305.536,119.278 304.621,119.193 304.063 C 119.109 303.504,119.040 303.961,119.040 305.078 M279.077 305.485 C 278.941 306.331,278.903 307.096,278.991 307.184 C 279.079 307.272,279.267 306.657,279.409 305.817 C 279.551 304.977,279.590 304.213,279.495 304.118 C 279.400 304.023,279.212 304.638,279.077 305.485 M105.718 307.664 C 105.718 308.375,105.794 308.666,105.887 308.310 C 105.980 307.955,105.980 307.373,105.887 307.018 C 105.794 306.662,105.718 306.953,105.718 307.664 M119.304 309.357 C 119.307 309.746,119.478 310.314,119.684 310.619 C 119.958 311.023,119.993 310.874,119.812 310.065 C 119.508 308.707,119.296 308.412,119.304 309.357 M278.167 310.865 C 278.139 311.306,278.021 311.971,277.904 312.343 C 277.703 312.983,277.714 312.984,278.113 312.362 C 278.345 312.001,278.463 311.336,278.376 310.885 C 278.217 310.065,278.217 310.065,278.167 310.865 M276.850 316.370 C 276.714 316.911,276.674 317.425,276.761 317.512 C 276.848 317.599,277.031 317.228,277.167 316.686 C 277.302 316.145,277.342 315.631,277.255 315.544 C 277.168 315.457,276.986 315.829,276.850 316.370 M124.100 318.190 C 125.203 319.307,126.189 320.222,126.291 320.222 C 126.392 320.222,125.572 319.307,124.469 318.190 C 123.366 317.073,122.380 316.159,122.278 316.159 C 122.177 316.159,122.996 317.073,124.100 318.190 M127.054 320.978 C 128.336 321.848,129.065 322.101,128.163 321.363 C 127.655 320.947,127.073 320.606,126.870 320.605 C 126.667 320.603,126.750 320.771,127.054 320.978 M140.351 326.853 C 140.656 327.059,141.223 327.230,141.613 327.233 C 142.558 327.241,142.263 327.030,140.905 326.726 C 140.096 326.545,139.946 326.579,140.351 326.853 M146.260 327.971 C 147.172 328.270,150.221 328.472,149.923 328.214 C 149.838 328.140,148.772 327.988,147.553 327.874 C 146.176 327.746,145.687 327.783,146.260 327.971 M214.404 327.978 L 185.596 328.169 213.481 328.210 C 228.818 328.233,244.524 328.136,248.384 327.997 L 255.402 327.742 249.307 327.764 C 245.956 327.776,230.249 327.873,214.404 327.978 M156.899 328.623 C 158.992 328.689,162.316 328.689,164.286 328.622 C 166.255 328.556,164.543 328.502,160.480 328.502 C 156.417 328.503,154.806 328.557,156.899 328.623 M113.758 331.787 C 113.758 331.850,114.298 332.391,114.958 332.987 L 116.159 334.072 115.074 332.872 C 114.063 331.753,113.758 331.502,113.758 331.787 M121.884 336.657 C 122.392 336.948,122.973 337.185,123.176 337.185 C 123.380 337.185,123.130 336.948,122.622 336.657 C 122.114 336.367,121.533 336.130,121.330 336.130 C 121.127 336.130,121.376 336.367,121.884 336.657 M275.716 336.670 C 274.792 337.115,274.761 337.167,275.531 336.978 C 276.577 336.723,277.754 336.123,277.193 336.131 C 276.990 336.134,276.325 336.377,275.716 336.670 M249.861 342.752 L 248.384 343.016 249.677 343.025 C 250.388 343.030,251.468 342.907,252.078 342.752 C 253.580 342.369,251.997 342.369,249.861 342.752 M144.875 343.006 C 145.231 343.099,145.813 343.099,146.168 343.006 C 146.524 342.913,146.233 342.837,145.522 342.837 C 144.811 342.837,144.520 342.913,144.875 343.006 M148.758 343.382 C 149.217 343.471,149.882 343.467,150.235 343.375 C 150.588 343.282,150.212 343.210,149.400 343.214 C 148.587 343.218,148.298 343.294,148.758 343.382 M243.675 343.382 C 244.132 343.470,244.880 343.470,245.337 343.382 C 245.794 343.294,245.420 343.222,244.506 343.222 C 243.592 343.222,243.218 343.294,243.675 343.382 M175.900 343.767 C 187.835 343.821,207.364 343.821,219.298 343.767 C 231.233 343.713,221.468 343.669,197.599 343.669 C 173.730 343.669,163.966 343.713,175.900 343.767 " stroke="none" fill="#acacb4" fill-rule="evenodd"></path><path id="path4" d="M99.833 23.175 C 101.621 23.242,104.446 23.242,106.112 23.174 C 107.778 23.106,106.316 23.050,102.862 23.050 C 99.409 23.051,98.046 23.107,99.833 23.175 M92.336 23.633 C 91.959 23.874,92.253 23.914,93.259 23.760 C 95.085 23.480,95.396 23.267,93.967 23.274 C 93.375 23.277,92.641 23.439,92.336 23.633 M192.312 25.392 C 196.209 25.452,202.691 25.452,206.716 25.392 C 210.742 25.332,207.553 25.283,199.631 25.283 C 191.708 25.283,188.415 25.332,192.312 25.392 M179.046 25.752 C 179.710 25.835,180.707 25.833,181.262 25.749 C 181.817 25.664,181.274 25.597,180.055 25.599 C 178.837 25.601,178.382 25.670,179.046 25.752 M217.267 25.749 C 217.825 25.834,218.740 25.834,219.298 25.749 C 219.857 25.665,219.400 25.595,218.283 25.595 C 217.165 25.595,216.708 25.665,217.267 25.749 M170.360 26.847 C 170.716 26.940,171.297 26.940,171.653 26.847 C 172.008 26.754,171.717 26.678,171.006 26.678 C 170.295 26.678,170.005 26.754,170.360 26.847 M117.981 29.823 L 118.006 32.687 121.203 32.872 C 122.962 32.973,124.323 32.932,124.228 32.779 C 124.134 32.627,122.743 32.502,121.139 32.502 L 118.221 32.502 118.088 29.731 L 117.956 26.960 117.981 29.823 M165.651 27.701 C 165.185 27.901,165.117 28.018,165.466 28.018 C 165.771 28.018,166.353 27.875,166.759 27.701 C 167.225 27.501,167.293 27.383,166.944 27.383 C 166.639 27.383,166.057 27.526,165.651 27.701 M76.985 31.487 L 75.900 32.687 77.101 31.602 C 78.220 30.591,78.471 30.286,78.185 30.286 C 78.122 30.286,77.582 30.826,76.985 31.487 M278.284 33.333 L 276.824 34.903 278.393 33.443 C 279.853 32.085,280.133 31.764,279.853 31.764 C 279.793 31.764,279.087 32.470,278.284 33.333 M72.553 35.549 L 71.468 36.750 72.669 35.665 C 73.787 34.654,74.039 34.349,73.753 34.349 C 73.690 34.349,73.150 34.889,72.553 35.549 M139.243 36.213 C 138.838 36.486,138.988 36.521,139.797 36.340 C 141.155 36.036,141.450 35.825,140.505 35.832 C 140.115 35.835,139.548 36.006,139.243 36.213 M274.034 37.211 L 272.761 38.596 274.146 37.324 C 275.435 36.139,275.701 35.826,275.419 35.826 C 275.357 35.826,274.734 36.450,274.034 37.211 M196.399 37.947 C 197.669 38.019,199.746 38.019,201.016 37.947 C 202.285 37.874,201.247 37.815,198.707 37.815 C 196.168 37.815,195.129 37.874,196.399 37.947 M68.329 39.705 C 67.432 40.619,66.781 41.367,66.882 41.367 C 66.984 41.367,67.801 40.619,68.698 39.705 C 69.595 38.790,70.246 38.042,70.145 38.042 C 70.043 38.042,69.226 38.790,68.329 39.705 M189.935 38.297 C 190.291 38.390,190.873 38.390,191.228 38.297 C 191.584 38.204,191.293 38.128,190.582 38.128 C 189.871 38.128,189.580 38.204,189.935 38.297 M205.637 38.304 C 206.096 38.392,206.761 38.389,207.114 38.296 C 207.467 38.204,207.091 38.132,206.279 38.136 C 205.466 38.140,205.177 38.215,205.637 38.304 M182.368 39.042 C 182.828 39.131,183.492 39.127,183.845 39.035 C 184.199 38.942,183.823 38.870,183.010 38.874 C 182.198 38.878,181.909 38.954,182.368 39.042 M213.024 39.042 C 213.483 39.131,214.148 39.127,214.501 39.035 C 214.854 38.942,214.478 38.870,213.666 38.874 C 212.853 38.878,212.564 38.954,213.024 39.042 M269.067 39.151 L 265.374 39.377 268.953 39.448 C 271.022 39.490,272.629 39.364,272.761 39.151 C 272.886 38.947,272.938 38.813,272.875 38.853 C 272.812 38.892,271.099 39.026,269.067 39.151 M331.487 40.259 C 332.280 41.071,333.012 41.736,333.114 41.736 C 333.215 41.736,332.649 41.071,331.856 40.259 C 331.063 39.446,330.330 38.781,330.229 38.781 C 330.127 38.781,330.693 39.446,331.487 40.259 M288.989 40.720 L 287.904 41.921 289.104 40.836 C 289.765 40.239,290.305 39.699,290.305 39.635 C 290.305 39.350,290.000 39.601,288.989 40.720 M225.300 40.980 C 225.605 41.187,226.173 41.358,226.562 41.361 C 227.507 41.368,227.212 41.157,225.854 40.853 C 225.045 40.672,224.895 40.707,225.300 40.980 M311.380 40.874 C 311.393 41.043,312.156 41.732,313.077 42.404 C 313.998 43.076,314.650 43.462,314.527 43.262 C 314.159 42.667,311.355 40.539,311.380 40.874 M111.173 42.953 C 111.173 43.047,111.954 43.765,112.910 44.548 C 113.865 45.331,114.528 45.778,114.382 45.543 C 114.072 45.040,111.173 42.701,111.173 42.953 M285.509 44.131 C 284.822 44.839,284.333 45.475,284.420 45.545 C 284.508 45.614,285.139 45.035,285.823 44.257 C 287.377 42.491,287.176 42.410,285.509 44.131 M315.051 43.698 C 315.051 43.762,315.591 44.302,316.251 44.899 L 317.452 45.983 316.367 44.783 C 315.356 43.664,315.051 43.413,315.051 43.698 M281.615 48.661 C 280.420 50.032,279.827 50.822,280.298 50.416 C 281.240 49.602,284.186 46.168,283.941 46.168 C 283.857 46.168,282.810 47.290,281.615 48.661 M320.422 49.307 C 322.820 52.295,322.809 52.284,322.793 51.874 C 322.785 51.681,321.848 50.526,320.711 49.307 L 318.643 47.091 320.422 49.307 M279.181 51.801 C 279.102 52.629,279.279 53.363,279.648 53.740 C 279.884 53.981,279.892 53.789,279.670 53.186 C 279.483 52.678,279.404 52.054,279.493 51.801 C 279.582 51.547,279.558 51.339,279.440 51.339 C 279.321 51.339,279.205 51.547,279.181 51.801 M60.058 55.247 C 59.746 56.060,59.778 57.540,60.111 57.744 C 60.263 57.837,60.392 57.182,60.398 56.288 C 60.408 54.486,60.382 54.404,60.058 55.247 M117.507 55.833 C 117.476 56.375,117.356 57.123,117.239 57.495 C 117.038 58.135,117.049 58.136,117.447 57.516 C 117.679 57.155,117.799 56.407,117.715 55.854 L 117.562 54.848 117.507 55.833 M134.972 59.557 L 133.887 60.757 135.088 59.672 C 136.207 58.661,136.458 58.356,136.173 58.356 C 136.109 58.356,135.569 58.897,134.972 59.557 M318.283 60.598 C 317.521 61.000,316.898 61.411,316.898 61.512 C 316.898 61.613,317.562 61.356,318.375 60.942 C 319.187 60.527,319.852 60.108,319.852 60.011 C 319.852 59.769,319.850 59.770,318.283 60.598 M114.706 61.588 C 113.908 62.608,113.844 62.780,114.463 62.239 C 115.204 61.592,116.180 60.203,115.895 60.203 C 115.837 60.203,115.302 60.826,114.706 61.588 M130.748 63.343 C 129.235 64.866,128.079 66.113,128.181 66.113 C 128.283 66.113,129.604 64.866,131.117 63.343 C 132.631 61.819,133.786 60.572,133.684 60.572 C 133.583 60.572,132.261 61.819,130.748 63.343 M111.162 65.651 L 108.772 68.144 111.265 65.754 C 113.581 63.534,113.927 63.158,113.655 63.158 C 113.598 63.158,112.477 64.280,111.162 65.651 M270.360 63.273 C 270.360 63.337,270.900 63.877,271.560 64.474 L 272.761 65.559 271.676 64.358 C 270.665 63.239,270.360 62.988,270.360 63.273 M311.542 64.291 C 310.933 64.681,310.600 65.001,310.803 65.000 C 311.006 65.000,311.671 64.670,312.281 64.266 C 312.890 63.862,313.223 63.543,313.019 63.557 C 312.816 63.570,312.151 63.901,311.542 64.291 M92.336 65.867 C 92.336 65.962,92.872 66.227,93.528 66.456 C 94.184 66.684,94.558 66.719,94.359 66.534 C 93.938 66.140,92.336 65.612,92.336 65.867 M127.372 67.128 C 126.310 68.411,125.859 69.067,126.042 69.067 C 126.144 69.067,126.672 68.486,127.214 67.775 C 128.220 66.455,128.342 65.957,127.372 67.128 M66.851 67.336 C 66.851 67.400,67.392 67.940,68.052 68.537 L 69.252 69.621 68.167 68.421 C 67.156 67.302,66.851 67.051,66.851 67.336 M292.705 69.427 C 293.411 69.739,295.766 69.951,295.445 69.673 C 295.360 69.600,294.543 69.441,293.629 69.320 C 292.519 69.173,292.212 69.209,292.705 69.427 M298.153 69.691 C 298.509 69.784,299.090 69.784,299.446 69.691 C 299.801 69.598,299.511 69.522,298.800 69.522 C 298.089 69.522,297.798 69.598,298.153 69.691 M93.306 99.030 C 92.998 100.570,93.296 100.868,93.629 99.354 C 93.769 98.715,93.807 98.116,93.713 98.022 C 93.619 97.928,93.435 98.382,93.306 99.030 M291.788 105.109 C 291.791 105.499,291.962 106.066,292.168 106.371 C 292.442 106.776,292.476 106.626,292.295 105.817 C 291.992 104.459,291.780 104.164,291.788 105.109 M308.259 108.403 C 308.562 109.761,308.774 110.055,308.766 109.110 C 308.763 108.721,308.592 108.153,308.386 107.849 C 308.112 107.444,308.078 107.593,308.259 108.403 M292.896 109.541 C 292.899 109.931,293.070 110.499,293.276 110.803 C 293.550 111.208,293.584 111.059,293.403 110.249 C 293.100 108.891,292.888 108.596,292.896 109.541 M274.054 115.093 C 276.258 115.370,278.772 115.398,278.614 115.143 C 278.519 114.991,277.247 114.891,275.786 114.921 C 274.325 114.952,273.546 115.029,274.054 115.093 M268.902 115.585 C 268.556 115.804,268.947 115.849,270.010 115.713 C 270.914 115.598,271.722 115.443,271.807 115.369 C 272.153 115.068,269.396 115.273,268.902 115.585 M278.571 117.821 C 278.571 118.532,278.647 118.823,278.740 118.467 C 278.833 118.112,278.833 117.530,278.740 117.175 C 278.647 116.819,278.571 117.110,278.571 117.821 M278.167 121.145 C 278.133 121.653,278.021 122.484,277.916 122.992 L 277.726 123.915 278.123 123.006 C 278.341 122.506,278.454 121.675,278.373 121.159 L 278.227 120.222 278.167 121.145 M100.505 121.576 C 100.481 121.915,100.366 122.497,100.249 122.869 C 100.048 123.510,100.059 123.511,100.459 122.888 C 100.691 122.526,100.806 121.944,100.714 121.595 C 100.564 121.023,100.543 121.021,100.505 121.576 M152.539 133.887 C 153.228 134.598,153.875 135.180,153.977 135.180 C 154.078 135.180,153.598 134.598,152.909 133.887 C 152.219 133.176,151.573 132.595,151.471 132.595 C 151.369 132.595,151.850 133.176,152.539 133.887 M96.260 138.181 C 95.952 139.720,96.251 140.019,96.584 138.504 C 96.724 137.866,96.762 137.266,96.667 137.172 C 96.573 137.078,96.390 137.532,96.260 138.181 M155.785 144.964 L 155.891 152.865 154.397 153.015 L 152.903 153.166 154.476 153.129 L 156.048 153.093 156.148 145.363 C 156.203 141.112,156.120 137.505,155.963 137.348 C 155.807 137.191,155.726 140.618,155.785 144.964 M301.068 139.243 C 301.068 139.548,301.210 140.129,301.385 140.536 C 301.585 141.001,301.702 141.069,301.702 140.720 C 301.702 140.416,301.560 139.834,301.385 139.428 C 301.185 138.962,301.068 138.894,301.068 139.243 M130.748 142.752 C 131.437 143.463,132.084 144.044,132.186 144.044 C 132.287 144.044,131.806 143.463,131.117 142.752 C 130.428 142.041,129.781 141.459,129.680 141.459 C 129.578 141.459,130.059 142.041,130.748 142.752 M244.242 146.814 C 244.245 147.830,244.317 148.202,244.402 147.640 C 244.487 147.079,244.484 146.248,244.397 145.794 C 244.309 145.339,244.240 145.799,244.242 146.814 M80.929 145.953 C 80.906 146.292,80.791 146.874,80.674 147.246 C 80.472 147.887,80.483 147.888,80.883 147.264 C 81.116 146.903,81.230 146.321,81.139 145.972 C 80.989 145.400,80.968 145.398,80.929 145.953 M137.765 147.910 C 137.765 148.012,138.596 148.516,139.612 149.030 C 140.628 149.545,141.459 149.883,141.459 149.782 C 141.459 149.680,140.628 149.176,139.612 148.661 C 138.596 148.146,137.765 147.808,137.765 147.910 M94.269 149.215 C 94.269 149.926,94.345 150.217,94.437 149.861 C 94.530 149.506,94.530 148.924,94.437 148.569 C 94.345 148.213,94.269 148.504,94.269 149.215 M303.237 149.431 C 303.241 149.820,303.412 150.388,303.618 150.693 C 303.892 151.097,303.926 150.948,303.745 150.139 C 303.441 148.780,303.230 148.486,303.237 149.431 M142.198 150.167 C 142.198 150.416,144.116 151.113,144.299 150.930 C 144.383 150.846,143.944 150.601,143.324 150.385 C 142.705 150.169,142.198 150.071,142.198 150.167 M243.916 151.521 C 243.946 152.822,244.079 153.100,244.691 153.130 C 245.212 153.155,245.245 153.121,244.803 153.014 C 244.381 152.912,244.128 152.387,244.028 151.405 L 243.880 149.948 243.916 151.521 M248.753 152.539 L 247.276 152.804 248.569 152.851 C 249.280 152.876,250.111 152.736,250.416 152.539 C 251.020 152.149,250.935 152.149,248.753 152.539 M93.168 156.787 C 93.172 157.599,93.248 157.888,93.336 157.429 C 93.424 156.969,93.421 156.304,93.329 155.951 C 93.236 155.598,93.164 155.974,93.168 156.787 M305.541 162.327 C 305.545 163.139,305.621 163.428,305.709 162.969 C 305.797 162.509,305.794 161.845,305.702 161.492 C 305.609 161.138,305.537 161.514,305.541 162.327 M92.060 166.390 C 92.064 167.202,92.140 167.491,92.228 167.032 C 92.316 166.572,92.313 165.907,92.221 165.554 C 92.128 165.201,92.056 165.577,92.060 166.390 M76.639 170.268 C 76.493 171.916,76.453 173.344,76.550 173.441 C 76.647 173.538,76.844 172.267,76.988 170.617 C 77.132 168.966,77.172 167.538,77.077 167.443 C 76.982 167.348,76.785 168.619,76.639 170.268 M306.272 169.529 C 306.272 170.240,306.348 170.531,306.441 170.175 C 306.534 169.820,306.534 169.238,306.441 168.883 C 306.348 168.527,306.272 168.818,306.272 169.529 M91.691 172.669 C 91.695 173.481,91.770 173.770,91.859 173.311 C 91.947 172.851,91.944 172.186,91.851 171.833 C 91.759 171.480,91.686 171.856,91.691 172.669 M306.674 173.592 C 306.674 174.912,306.741 175.452,306.823 174.792 C 306.905 174.132,306.905 173.052,306.823 172.392 C 306.741 171.731,306.674 172.271,306.674 173.592 M324.061 178.578 C 324.061 181.422,324.119 182.537,324.190 181.055 C 324.260 179.573,324.259 177.246,324.189 175.884 C 324.118 174.522,324.060 175.734,324.061 178.578 M91.388 185.226 C 91.388 190.305,91.440 192.433,91.504 189.957 C 91.568 187.480,91.568 183.325,91.504 180.723 C 91.441 178.121,91.388 180.148,91.388 185.226 M76.203 179.132 C 76.203 180.452,76.270 180.993,76.352 180.332 C 76.434 179.672,76.434 178.592,76.352 177.932 C 76.270 177.271,76.203 177.812,76.203 179.132 M306.677 189.289 C 306.679 190.711,306.745 191.247,306.825 190.481 C 306.905 189.715,306.904 188.551,306.822 187.896 C 306.741 187.240,306.675 187.867,306.677 189.289 M76.199 189.289 C 76.201 190.508,76.270 190.962,76.353 190.298 C 76.435 189.634,76.433 188.637,76.349 188.082 C 76.265 187.527,76.197 188.070,76.199 189.289 M76.547 195.199 C 76.552 196.011,76.627 196.300,76.716 195.841 C 76.804 195.381,76.801 194.716,76.708 194.363 C 76.616 194.010,76.543 194.386,76.547 195.199 M91.993 199.477 C 92.007 199.968,92.169 200.702,92.353 201.108 C 92.587 201.623,92.620 201.399,92.463 200.369 C 92.202 198.654,91.955 198.186,91.993 199.477 M305.534 200.185 C 305.534 200.896,305.610 201.187,305.702 200.831 C 305.795 200.476,305.795 199.894,305.702 199.538 C 305.610 199.183,305.534 199.474,305.534 200.185 M320.822 204.663 C 320.692 205.312,320.654 205.911,320.738 205.995 C 320.822 206.079,321.005 205.625,321.145 204.986 C 321.285 204.348,321.323 203.748,321.229 203.654 C 321.135 203.560,320.952 204.014,320.822 204.663 M126.931 219.267 C 126.796 219.403,126.688 219.694,126.691 219.914 C 126.694 220.160,126.807 220.140,126.982 219.864 C 127.177 219.558,128.806 219.377,132.055 219.298 L 136.842 219.182 132.010 219.102 C 129.352 219.057,127.067 219.132,126.931 219.267 M262.754 219.533 C 262.646 219.814,262.622 220.770,262.701 221.657 C 262.843 223.261,262.844 223.259,262.909 221.342 L 262.973 219.416 266.944 219.297 L 270.914 219.178 266.932 219.100 C 263.825 219.038,262.907 219.134,262.754 219.533 M298.041 228.121 C 297.838 228.657,297.739 229.165,297.823 229.248 C 297.907 229.332,298.152 228.893,298.368 228.274 C 298.849 226.896,298.559 226.761,298.041 228.121 M275.962 229.012 C 276.178 229.632,276.424 230.071,276.507 229.987 C 276.690 229.804,275.993 227.886,275.744 227.886 C 275.648 227.886,275.746 228.393,275.962 229.012 M85.889 230.194 C 86.027 230.651,86.292 231.187,86.478 231.386 C 86.664 231.584,86.629 231.210,86.400 230.555 C 85.933 229.213,85.501 228.908,85.889 230.194 M133.914 231.790 C 133.778 232.331,133.738 232.845,133.825 232.932 C 133.912 233.019,134.094 232.648,134.230 232.107 C 134.366 231.565,134.406 231.051,134.319 230.964 C 134.232 230.877,134.050 231.249,133.914 231.790 M110.619 240.813 C 111.412 241.625,112.144 242.290,112.246 242.290 C 112.348 242.290,111.781 241.625,110.988 240.813 C 110.195 240.000,109.462 239.335,109.361 239.335 C 109.259 239.335,109.825 240.000,110.619 240.813 M284.949 243.767 C 284.484 243.967,284.415 244.085,284.765 244.085 C 285.069 244.085,285.651 243.942,286.057 243.767 C 286.523 243.567,286.591 243.450,286.242 243.450 C 285.937 243.450,285.355 243.593,284.949 243.767 M93.075 245.730 C 93.075 245.793,93.615 246.333,94.275 246.930 L 95.476 248.015 94.391 246.814 C 93.380 245.695,93.075 245.444,93.075 245.730 M232.854 261.588 L 231.394 263.158 233.051 261.681 C 233.962 260.868,234.779 260.162,234.867 260.111 C 234.954 260.060,234.866 260.018,234.670 260.018 C 234.474 260.018,233.657 260.725,232.854 261.588 M294.604 261.204 C 294.480 261.669,294.404 263.546,294.435 265.374 L 294.493 268.698 294.727 264.635 C 294.976 260.302,294.961 259.874,294.604 261.204 M159.957 261.258 C 160.042 261.331,160.693 261.496,161.404 261.627 C 162.313 261.794,162.532 261.756,162.142 261.501 C 161.642 261.173,159.591 260.945,159.957 261.258 M275.018 263.897 C 275.321 265.255,275.533 265.549,275.525 264.604 C 275.522 264.215,275.351 263.647,275.145 263.343 C 274.871 262.938,274.837 263.087,275.018 263.897 M249.882 265.764 C 249.743 266.505,249.703 267.185,249.793 267.276 C 249.884 267.366,250.071 266.833,250.210 266.092 C 250.349 265.351,250.389 264.671,250.299 264.580 C 250.209 264.490,250.021 265.023,249.882 265.764 M228.376 268.329 C 228.378 269.751,228.444 270.287,228.524 269.521 C 228.604 268.755,228.603 267.591,228.521 266.935 C 228.440 266.280,228.374 266.907,228.376 268.329 M275.952 267.405 C 275.952 267.710,276.095 268.292,276.270 268.698 C 276.470 269.164,276.587 269.232,276.587 268.883 C 276.587 268.578,276.444 267.996,276.270 267.590 C 276.070 267.124,275.952 267.056,275.952 267.405 M294.895 277.193 C 294.895 281.865,294.948 283.726,295.013 281.327 C 295.077 278.929,295.077 275.106,295.012 272.832 C 294.948 270.558,294.895 272.521,294.895 277.193 M149.308 272.022 C 149.312 272.835,149.388 273.124,149.476 272.664 C 149.565 272.205,149.561 271.540,149.469 271.187 C 149.376 270.834,149.304 271.210,149.308 272.022 M105.759 274.608 C 105.760 276.233,105.825 276.852,105.903 275.983 C 105.981 275.114,105.980 273.784,105.901 273.028 C 105.822 272.272,105.758 272.982,105.759 274.608 M277.014 272.422 C 277.017 272.812,277.188 273.380,277.395 273.684 C 277.668 274.089,277.703 273.939,277.522 273.130 C 277.218 271.772,277.006 271.477,277.014 272.422 M170.331 272.761 C 170.325 273.167,170.463 273.832,170.637 274.238 C 171.042 275.179,171.042 274.208,170.637 272.946 C 170.399 272.203,170.339 272.167,170.331 272.761 M228.999 274.454 C 229.002 274.945,229.168 275.596,229.368 275.900 C 229.624 276.290,229.661 276.071,229.494 275.162 C 229.202 273.569,228.992 273.268,228.999 274.454 M247.786 277.297 C 247.665 278.031,247.719 278.375,247.924 278.171 C 248.110 277.984,248.200 277.439,248.125 276.959 C 248.008 276.219,247.956 276.271,247.786 277.297 M171.461 278.116 C 171.461 278.827,171.538 279.118,171.630 278.763 C 171.723 278.407,171.723 277.825,171.630 277.470 C 171.538 277.114,171.461 277.405,171.461 278.116 M278.142 278.516 C 278.157 279.007,278.319 279.741,278.503 280.148 C 278.736 280.663,278.769 280.439,278.613 279.409 C 278.352 277.694,278.105 277.226,278.142 278.516 M153.278 280.517 C 154.381 281.634,155.367 282.548,155.469 282.548 C 155.570 282.548,154.751 281.634,153.647 280.517 C 152.544 279.400,151.558 278.486,151.456 278.486 C 151.355 278.486,152.175 279.400,153.278 280.517 M230.107 279.070 C 230.110 279.460,230.282 280.028,230.488 280.332 C 230.762 280.737,230.796 280.588,230.615 279.778 C 230.311 278.420,230.100 278.126,230.107 279.070 M105.004 286.611 C 105.004 287.729,105.074 288.186,105.158 287.627 C 105.243 287.068,105.243 286.154,105.158 285.596 C 105.074 285.037,105.004 285.494,105.004 286.611 M120.512 288.643 C 120.515 289.658,120.586 290.030,120.671 289.469 C 120.756 288.907,120.754 288.076,120.666 287.622 C 120.579 287.168,120.509 287.627,120.512 288.643 M279.381 295.106 C 279.381 299.474,279.435 301.260,279.500 299.077 C 279.565 296.893,279.565 293.319,279.500 291.136 C 279.435 288.952,279.381 290.739,279.381 295.106 M295.221 291.228 C 295.223 292.447,295.292 292.901,295.374 292.237 C 295.456 291.573,295.454 290.576,295.370 290.021 C 295.286 289.466,295.219 290.009,295.221 291.228 M104.668 295.660 C 104.669 298.301,104.727 299.333,104.799 297.953 C 104.870 296.574,104.869 294.413,104.798 293.152 C 104.726 291.891,104.667 293.019,104.668 295.660 M119.778 298.800 C 119.778 299.917,119.848 300.374,119.932 299.815 C 120.017 299.257,120.017 298.343,119.932 297.784 C 119.848 297.225,119.778 297.682,119.778 298.800 M119.427 305.078 C 119.427 306.805,119.491 307.512,119.569 306.648 C 119.646 305.785,119.646 304.372,119.569 303.509 C 119.491 302.645,119.427 303.352,119.427 305.078 M105.004 304.340 C 105.004 305.457,105.074 305.914,105.158 305.355 C 105.243 304.797,105.243 303.883,105.158 303.324 C 105.074 302.765,105.004 303.223,105.004 304.340 M278.347 308.232 C 278.220 308.562,278.131 309.110,278.148 309.448 C 278.166 309.787,278.326 309.574,278.505 308.975 C 278.853 307.809,278.730 307.233,278.347 308.232 M294.787 309.757 C 294.759 310.198,294.641 310.863,294.524 311.235 C 294.323 311.875,294.334 311.876,294.733 311.254 C 294.965 310.893,295.083 310.228,294.996 309.777 C 294.838 308.957,294.837 308.957,294.787 309.757 M293.585 315.709 C 293.463 316.443,293.517 316.787,293.722 316.582 C 293.908 316.396,293.999 315.851,293.923 315.370 C 293.807 314.631,293.755 314.683,293.585 315.709 M124.284 318.006 C 125.491 319.224,126.560 320.222,126.662 320.222 C 126.764 320.222,125.860 319.224,124.654 318.006 C 123.448 316.787,122.378 315.789,122.276 315.789 C 122.175 315.789,123.078 316.787,124.284 318.006 M143.306 327.239 C 144.568 327.644,145.540 327.644,144.598 327.239 C 144.192 327.065,143.527 326.927,143.121 326.933 C 142.527 326.941,142.563 327.001,143.306 327.239 M257.064 327.239 C 255.822 327.637,257.163 327.637,258.726 327.239 C 259.721 326.986,259.740 326.957,258.910 326.950 C 258.403 326.947,257.572 327.077,257.064 327.239 M147.830 327.863 C 148.186 327.956,148.767 327.956,149.123 327.863 C 149.478 327.770,149.187 327.694,148.476 327.694 C 147.765 327.694,147.475 327.770,147.830 327.863 M200.304 327.885 C 208.191 327.941,220.989 327.941,228.744 327.885 C 236.499 327.830,230.046 327.784,214.404 327.784 C 198.763 327.784,192.418 327.830,200.304 327.885 M156.346 328.254 C 158.744 328.318,162.567 328.318,164.841 328.253 C 167.115 328.189,165.152 328.136,160.480 328.136 C 155.808 328.136,153.948 328.189,156.346 328.254 M113.031 331.012 C 113.011 331.462,115.294 333.894,116.117 334.301 C 116.546 334.513,116.369 334.254,115.723 333.726 C 115.078 333.199,114.210 332.313,113.796 331.757 C 113.382 331.202,113.038 330.867,113.031 331.012 M285.665 332.502 L 284.580 333.703 285.780 332.618 C 286.440 332.021,286.981 331.481,286.981 331.418 C 286.981 331.132,286.676 331.383,285.665 332.502 M277.562 336.301 C 276.634 336.748,276.604 336.799,277.378 336.612 C 277.886 336.490,278.459 336.242,278.652 336.062 C 279.131 335.615,278.868 335.672,277.562 336.301 M264.266 340.536 C 263.800 340.736,263.732 340.853,264.081 340.853 C 264.386 340.853,264.968 340.710,265.374 340.536 C 265.840 340.335,265.908 340.218,265.559 340.218 C 265.254 340.218,264.672 340.361,264.266 340.536 M147.368 343.508 C 148.248 343.773,154.234 343.938,153.463 343.676 C 153.259 343.607,151.597 343.479,149.769 343.391 C 147.941 343.303,146.861 343.356,147.368 343.508 M242.559 343.757 C 243.214 343.838,244.378 343.840,245.144 343.760 C 245.910 343.680,245.374 343.613,243.952 343.612 C 242.530 343.610,241.903 343.675,242.559 343.757 M177.719 344.137 C 188.622 344.191,206.572 344.191,217.608 344.137 C 228.644 344.082,219.723 344.038,197.784 344.038 C 175.845 344.038,166.816 344.082,177.719 344.137 " stroke="none" fill="#c0c1c8" fill-rule="evenodd"></path></g></svg>